<?xml version="1.0" encoding="UTF-8" standalone="no"?>
<svg
   xmlns:dc="http://purl.org/dc/elements/1.1/"
   xmlns:cc="http://creativecommons.org/ns#"
   xmlns:rdf="http://www.w3.org/1999/02/22-rdf-syntax-ns#"
   xmlns:svg="http://www.w3.org/2000/svg"
   xmlns="http://www.w3.org/2000/svg"
   version="1.1"
   id="svg2"
   viewBox="0 0 1000 999.99998"
   height="1000"
   width="1000">
  <defs
     id="defs4">
    <clipPath
       clipPathUnits="userSpaceOnUse"
       id="clipPath3369">
      <path
         d="m 0,623 734.285,0 0,-623 L 0,0 0,623 Z"
         id="path3371" />
    </clipPath>
  </defs>
  <metadata
     id="metadata7">
    <rdf:RDF>
      <cc:Work
         rdf:about="">
        <dc:format>image/svg+xml</dc:format>
        <dc:type
           rdf:resource="http://purl.org/dc/dcmitype/StillImage" />
        <dc:title></dc:title>
      </cc:Work>
    </rdf:RDF>
  </metadata>
  <g
     transform="translate(-11.620424,271.6494)"
     id="layer1">
    <g
       style="fill:#000000"
       id="g3363"
       transform="matrix(1.4098678,0,0,-1.4098678,-5.5992232,665.66053)">
      <g
         style="fill:#000000"
         id="g3365">
        <g
           style="fill:#000000"
           id="g3367"
           clip-path="url(#clipPath3369)">
          <g
             style="fill:#000000"
             id="g3373"
             transform="translate(66.2173,473.2813)">
            <path
               d="m 0,0 c -1.033,-0.039 -2.06,-0.32 -2.994,-0.86 -3.474,-2.006 -4.788,-6.12 -3.392,-9.344 0.832,-1.57 5.795,-8.886 8.322,-17.265 2.82,-8.263 2.267,-17.138 2.081,-17.146 l -0.002,0.001 c 0.001,-0.002 0.003,-0.002 0.004,-0.002 0.185,0.007 4.377,7.967 5.074,17.811 1.021,9.82 -1.317,20.515 -2.341,22.403 C 5.474,-1.463 2.712,0.103 0,0"
               style="fill:#000000;fill-opacity:1;fill-rule:nonzero;stroke:none"
               id="path3375" />
          </g>
          <g
             style="fill:#000000"
             id="g3377"
             transform="translate(54.0327,457.0337)">
            <path
               d="m 0,0 c -1.276,-0.14 -2.455,-0.806 -3.192,-1.905 -1.488,-2.225 -1.065,-5.071 0.72,-6.588 0.957,-0.695 6.076,-3.609 10.049,-7.873 4.124,-4.123 6.407,-9.607 6.285,-9.639 l 0.002,10e-4 c 0.107,0.012 0.284,6.025 -2.202,12.14 C 9.388,-7.696 4.843,-1.986 3.675,-1.16 2.569,-0.221 1.24,0.137 0,0"
               style="fill:#000000;fill-opacity:1;fill-rule:nonzero;stroke:none"
               id="path3379" />
          </g>
          <g
             style="fill:#000000"
             id="g3381"
             transform="translate(166.9805,461.6523)">
            <path
               d="M 0,0 -0.017,-0.002 -0.103,-0.041 0,0 Z"
               style="fill:#000000;fill-opacity:1;fill-rule:nonzero;stroke:none"
               id="path3383" />
          </g>
          <g
             style="fill:#000000"
             id="g3385"
             transform="translate(329.6738,306.3838)">
            <path
               d="m 0,0 c -2.85,-1.306 -5.672,-2.653 -8.473,-4.032 l 0.756,0.352 C -4.907,-2.306 -2.374,-1.099 0,0"
               style="fill:#000000;fill-opacity:1;fill-rule:nonzero;stroke:none"
               id="path3387" />
          </g>
          <g
             style="fill:#000000"
             id="g3389"
             transform="translate(286.4883,450.7837)">
            <path
               d="M 0,0 C 16.401,3.446 32.894,12.438 44.512,24.056 56.792,36.336 60.61,52.295 56.118,68.413 56.929,50.806 50.679,37.362 42.512,28.806 32.132,17.932 13.425,8.39 -2.387,4.282 -4.346,3.375 -6.336,2.506 -8.379,1.705 -6.259,1.173 -3.269,0.581 0,0"
               style="fill:#000000;fill-opacity:1;fill-rule:nonzero;stroke:none"
               id="path3391" />
          </g>
          <g
             style="fill:#000000"
             id="g3393"
             transform="translate(304.8989,448.0723)">
            <path
               d="M 0,0 C 23.67,5.806 42.08,13.883 56.351,23.965 74.672,36.907 83.226,55.122 71.789,80.147 77.343,61.692 71.702,40.335 53.476,28.31 38.708,18.565 19.768,10.351 -2.844,3.947 L -10.57,1.414 C -7.189,0.891 -3.978,0.435 -1.536,0.123 -1.022,0.076 -0.513,0.044 0,0"
               style="fill:#000000;fill-opacity:1;fill-rule:nonzero;stroke:none"
               id="path3395" />
          </g>
          <g
             style="fill:#000000"
             id="g3397"
             transform="translate(411.7715,537.2432)">
            <path
               d="M 0,0 C 5.112,-14.353 4.789,-25.322 2.896,-36.194 0.956,-47.332 -8.047,-58.671 -19.646,-66.236 -42.429,-80.97 -65.721,-84.009 -87.842,-87.513 l -8.45,-2.38 c 4.761,-0.24 9.465,-0.371 14.064,-0.371 1.849,0 3.684,0.019 5.505,0.057 19.344,3.2 40.192,7.695 59.131,20.353 12.154,8.192 20.858,17.445 23.934,29.368 C 8.325,-32.8 11.398,-19.817 0,0"
               style="fill:#000000;fill-opacity:1;fill-rule:nonzero;stroke:none"
               id="path3399" />
          </g>
          <g
             style="fill:#000000"
             id="g3401"
             transform="translate(594.9805,333.9209)">
            <path
               d="m 0,0 c 7.082,12.391 16.187,23.828 27.514,32.592 5.841,4.131 12.101,7.675 18.746,10.357 3.314,1.348 6.616,2.732 10.022,3.84 1.626,0.662 3.374,1.464 4.301,3.009 1.27,2.117 -0.292,5.195 -2.702,5.64 -1.744,0.322 -3.548,0.014 -5.261,-0.349 -4.364,-0.923 -7.993,-3.049 -11.905,-5.083 -1.771,-0.92 -3.521,-1.888 -5.156,-3.032 -2.736,-1.915 -5.331,-4.109 -7.887,-6.255 -3.305,-2.778 -6.23,-5.871 -8.946,-9.22 C 15.443,27.454 12.273,23.284 9.529,18.853 6.246,13.551 3.629,7.874 1.02,2.22 0.729,1.594 0.465,0.499 -0.003,0.001 c -0.024,-0.025 2.645,13.472 11.386,29.514 4.346,8.052 11.174,16.568 19.273,23.098 3.897,3.204 8.474,6.289 12.892,8.583 4.828,2.508 11.179,4.227 16.573,2.841 1.651,-0.424 3.274,-1.266 4.715,-2.164 2.966,-2.259 4.605,-5.407 5.079,-8.61 0.563,-3.6 -0.928,-7.874 -3.234,-10.158 C 62.366,38.986 56.299,37.748 50.793,35.976 48.383,35.198 46.768,34.616 44.638,33.955 35.968,30.829 28.333,26.609 21.681,21.472 8.348,10.994 -0.088,-0.017 0,0"
               style="fill:#000000;fill-opacity:1;fill-rule:nonzero;stroke:none"
               id="path3403" />
          </g>
          <g
             style="fill:#000000"
             id="g3405"
             transform="translate(630.1084,395.6016)">
            <path
               d="m 0,0 c -4.75,-3.744 -9.066,-7.513 -13.912,-12.083 l -0.155,-0.169 -5.145,-2.214 1.838,5.353 0.183,0.179 C -4.148,3.831 9.084,11.546 22.406,16.703 14.78,11.976 7.835,6.175 0,0"
               style="fill:#000000;fill-opacity:1;fill-rule:nonzero;stroke:none"
               id="path3407" />
          </g>
          <g
             style="fill:#000000"
             id="g3409"
             transform="translate(592.29,365.2505)">
            <path
               d="m 0,0 c 6.991,16.503 16.543,32.347 29.833,44.557 6.655,6.065 13.988,11.385 21.82,15.826 3.443,1.84 6.935,3.585 10.367,5.443 2.661,1.441 5.973,3.358 6.641,6.589 0.453,2.192 -1.187,4.143 -3.053,4.96 -2.179,0.954 -4.482,0.508 -6.657,-0.224 C 55.725,76.064 52.517,74.737 49.516,73.126 44.07,70.203 39.325,66.006 34.909,61.729 32.677,59.568 30.539,57.302 28.447,55.005 18.25,43.806 7.229,26.089 -0.002,0.001 c -0.014,-0.043 0.999,17.27 9.648,38.704 4.412,10.837 11.582,22.064 20.295,31.697 4.186,4.6 9.438,9.743 15.898,13.267 3.599,1.791 6.24,3.056 9.756,4.062 3.685,0.874 7.505,2.462 15.327,-0.117 3.845,-1.585 8.262,-5.716 9.113,-11.882 C 80.634,71.749 79.344,67.16 77.306,64.2 73.215,58.603 69.111,57.031 66.525,55.741 60.287,52.737 56.125,51.461 50.963,48.629 41.087,43.558 31.349,37.08 23.983,29.903 8.75,15.062 -0.109,-0.049 0,0"
               style="fill:#000000;fill-opacity:1;fill-rule:nonzero;stroke:none"
               id="path3411" />
          </g>
          <g
             style="fill:#000000"
             id="g3413"
             transform="translate(619.3721,440.7617)">
            <path
               d="m 0,0 c -3.828,-4.66 -7.375,-9.5 -11.299,-15.333 l -0.112,-0.199 -4.509,-3.329 0.578,5.636 0.137,0.216 C -5.404,2.376 5.979,12.615 17.791,20.667 11.55,13.826 6.237,7.593 0,0"
               style="fill:#000000;fill-opacity:1;fill-rule:nonzero;stroke:none"
               id="path3415" />
          </g>
          <g
             style="fill:#000000"
             id="g3417"
             transform="translate(554.6953,422.2573)">
            <path
               d="m 0,0 c -7.396,5.347 -14.041,11.917 -18.886,19.685 -2.246,3.973 -4.238,8.144 -5.332,12.598 -0.525,2.138 -0.999,4.309 -1.61,6.423 -0.507,1.749 -2.17,4.406 -4.374,3.455 -2.021,-0.873 -1.642,-3.967 -1.33,-5.669 0.093,-0.507 0.212,-1.015 0.363,-1.508 C -29.31,28.903 -24.154,13.857 0,0 c 0.016,-0.001 -8.505,2.349 -18.346,8.946 -4.923,3.39 -9.919,7.967 -13.925,13.555 -3.503,4.889 -7.089,11.667 -6.315,17.904 0.292,2.347 1.418,4.596 3.048,6.299 1.585,1.657 3.85,2.552 6.096,2.787 4.416,0.463 8.157,-3.59 9.625,-7.366 0.479,-1.233 0.797,-2.549 1.046,-3.848 0.896,-4.672 1.445,-9.307 2.996,-13.839 1.046,-3.056 2.412,-6.01 4.052,-8.794 C -6.225,6.317 -0.01,-0.059 0,0"
               style="fill:#000000;fill-opacity:1;fill-rule:nonzero;stroke:none"
               id="path3419" />
          </g>
          <g
             style="fill:#000000"
             id="g3421"
             transform="translate(611.6426,458.7866)">
            <path
               d="m 0,0 c -2.086,-2.709 -4.376,-5.263 -6.55,-7.9 -1.345,-1.632 -2.632,-3.319 -3.802,-5.081 -2.156,-3.251 -3.904,-6.756 -5.416,-10.348 -5.407,-12.978 -7.252,-27.217 -7.134,-41.21 -0.238,1.914 -0.542,3.813 -0.717,5.74 -0.225,2.475 -0.434,4.952 -0.591,7.432 -0.722,11.388 0.623,22.808 3.909,33.732 1.794,5.962 4.436,11.624 7.416,17.078 2.133,3.902 4.625,7.672 8.183,10.415 2.073,1.599 7.497,5.054 8.708,0.448 C 4.943,6.742 2.566,3.421 0.557,0.733 0.373,0.487 0.188,0.243 0,0 M 14.179,10.815 C 13.48,21.572 2.826,24.553 -5.965,20.971 c -9.914,-4.04 -14.43,-15.555 -18.017,-24.752 -3.847,-9.859 -5.414,-21.296 -4.912,-30.675 0.95,-18.871 6.004,-32.089 6.016,-32.065 -0.003,-0.002 -0.003,0.019 -0.001,0.052 0.458,3.369 2.642,16.528 8.037,30.195 3.243,7.914 8,15.652 13.991,22.491 2.572,3.016 6.081,6.025 9.717,10.501 3.206,3.947 5.651,8.898 5.313,14.097"
               style="fill:#000000;fill-opacity:1;fill-rule:nonzero;stroke:none"
               id="path3423" />
          </g>
          <g
             style="fill:#000000"
             id="g3425"
             transform="translate(574.21,407.4609)">
            <path
               d="m 0,0 c -5.127,10.458 -9.249,21.695 -10.02,33.401 -0.307,5.831 0.025,11.742 1.45,17.426 0.447,1.845 0.862,3.694 1.369,5.524 0.494,1.789 1.03,3.644 0.922,5.52 -0.092,1.572 -1.208,3.663 -3.047,3.455 -3.935,-0.446 -5.352,-5.84 -5.963,-8.986 -0.655,-3.37 -0.905,-7.107 -0.797,-10.547 0.091,-2.841 0.214,-5.705 0.595,-8.524 0.462,-3.41 1.313,-6.789 2.242,-10.098 1.153,-4.106 2.75,-8.033 4.554,-11.892 C -6.491,10.561 -3.971,6.05 -1.117,1.694 -0.746,1.128 -0.378,0.561 0,0 c 0.01,-0.027 -8.278,7.651 -15.612,20.825 -3.697,6.557 -6.611,15.179 -7.53,23.719 -0.487,4.211 -0.744,8.27 -0.297,12.943 0.212,2.343 1.172,5.595 2.174,7.61 1.184,2.1 2.475,5.589 7.911,7.912 C -8.261,75.582 0.734,71.685 1.731,64.998 2.509,59.788 0.629,54.803 -0.953,49.931 -1.453,48.389 -1.948,46.847 -2.384,45.286 -4.223,38.696 -4.914,31.191 -4.505,24.584 -3.562,10.755 0.207,0.078 0,0"
               style="fill:#000000;fill-opacity:1;fill-rule:nonzero;stroke:none"
               id="path3427" />
          </g>
          <g
             style="fill:#000000"
             id="g3429"
             transform="translate(586.8203,467.6855)">
            <path
               d="m 0,0 c -3.902,-10.862 -7.89,-20.99 -8.413,-32.433 l -0.065,-0.32 -2.418,-6.626 -2.073,7.019 0.018,0.201 C -11.161,-10.78 -2.073,9.432 11.084,25.948 6.539,18.054 3.158,8.787 0,0"
               style="fill:#000000;fill-opacity:1;fill-rule:nonzero;stroke:none"
               id="path3431" />
          </g>
          <g
             style="fill:#000000"
             id="g3433"
             transform="translate(544.8818,490.9585)">
            <path
               d="m 0,0 c -1.123,-16.665 -1.095,-33.838 4.933,-49.542 l 0.061,-0.244 1.166,-8.747 -5.436,7.252 -0.056,0.158 C -8.353,-25.327 -6.829,3.146 3.092,27.676 1.84,18.705 0.642,9.518 0,0"
               style="fill:#000000;fill-opacity:1;fill-rule:nonzero;stroke:none"
               id="path3435" />
          </g>
          <g
             style="fill:#000000"
             id="g3437"
             transform="translate(283.9766,331.4199)">
            <path
               d="m 0,0 c -3.902,-5.936 -8.138,-10.389 -12.702,-13.356 -4.563,-2.968 -10.228,-4.453 -16.987,-4.453 -9.336,0 -16.881,3.69 -22.631,11.074 -5.749,7.378 -8.625,16.913 -8.625,28.595 0,7.413 0.8,13.789 2.403,19.13 1.6,5.338 3.689,9.579 6.265,12.721 2.855,3.454 5.796,5.826 8.825,7.115 3.027,1.286 6.214,1.931 9.553,1.931 2.855,0 5.519,-0.331 7.989,-0.987 2.472,-0.657 4.335,-1.957 5.588,-3.897 -0.14,-1.379 -0.628,-3.554 -1.465,-6.528 -0.837,-2.975 -1.257,-5.869 -1.257,-8.689 0,-2.316 1.134,-4.414 3.403,-6.293 2.267,-1.878 5.46,-2.816 9.579,-2.816 3.839,0 6.599,1.207 8.273,3.628 1.675,2.417 2.512,5.196 2.512,8.338 0,7.538 -3.177,13.489 -9.528,17.855 -6.351,4.365 -14.589,6.551 -24.708,6.551 -7.329,0 -14.1,-1.368 -20.311,-4.099 -6.213,-2.734 -11.377,-6.331 -15.496,-10.79 -4.329,-4.65 -7.627,-9.817 -9.894,-15.5 -2.27,-5.687 -3.403,-11.796 -3.403,-18.328 0,-15.014 4.224,-26.982 12.67,-35.901 8.442,-8.92 20.135,-13.378 35.073,-13.378 8.026,0 15.81,2.168 23.348,6.502 7.538,4.332 13.61,10.204 18.217,17.618 L 0,0"
               style="fill:#000000;fill-opacity:1;fill-rule:nonzero;stroke:none"
               id="path3439" />
          </g>
          <g
             style="fill:#000000"
             id="g3441"
             transform="translate(166.1689,321.5273)">
            <path
               d="m 0,0 c -5.104,-7.602 -12.028,-11.401 -20.767,-11.401 -5.314,0 -9.773,1.144 -13.372,3.437 -3.603,2.294 -6.591,5.45 -8.97,9.471 -2.377,4.019 -4.107,8.59 -5.192,13.711 -1.084,5.119 -1.625,10.694 -1.625,16.724 0,4.586 0.452,9.329 1.362,14.229 0.91,4.901 2.483,9.266 4.723,13.098 2.376,4.146 5.469,7.412 9.28,9.8 3.811,2.386 8.409,3.581 13.794,3.581 5.243,0 9.684,-1.179 13.32,-3.534 3.636,-2.357 6.572,-5.481 8.812,-9.376 C 3.461,56.097 5.035,51.65 6.083,46.407 7.132,41.161 7.657,36.183 7.657,31.471 7.657,18.091 5.103,7.6 0,0 m 15.232,66.665 c -9.397,8.764 -21.326,13.147 -35.792,13.147 -15.23,0 -27.545,-4.618 -36.942,-13.853 -9.399,-9.235 -14.097,-21.106 -14.097,-35.619 0,-7.538 1.346,-14.338 4.035,-20.4 2.689,-6.063 6.307,-11.197 10.848,-15.407 4.612,-4.271 9.887,-7.52 15.825,-9.75 5.938,-2.231 12.191,-3.346 18.76,-3.346 7.895,0 15.022,1.226 21.382,3.677 6.356,2.448 11.947,6.184 16.77,11.211 4.261,4.395 7.542,9.751 9.85,16.065 2.306,6.314 3.458,12.736 3.458,19.27 0,14.573 -4.7,26.243 -14.097,35.005"
               style="fill:#000000;fill-opacity:1;fill-rule:nonzero;stroke:none"
               id="path3443" />
          </g>
          <g
             style="fill:#000000"
             id="g3445"
             transform="translate(506.543,367.061)">
            <path
               d="m 0,0 c 1.542,11.696 11.526,20.729 23.643,20.729 13.178,0 23.868,-10.686 23.868,-23.87 l -47.74,0 c 0,1.068 0.092,2.109 0.229,3.141 m 35.032,-52.538 c -0.277,-0.025 -0.525,-0.044 -0.814,-0.074 -1.673,-0.172 -3.27,-0.258 -4.799,-0.272 l -0.166,-0.004 -0.078,-0.003 0.01,0.005 c -9.708,-0.041 -16.577,2.719 -21.33,7.777 -5.087,5.42 -7.731,13.506 -8.696,23.757 -0.304,3.232 -0.463,6.654 -0.463,10.296 l 69.442,0 c 0,24.574 -19.923,44.494 -44.495,44.494 -16.172,0 -30.284,-8.654 -38.078,-21.558 -1.33,-2.34 -2.493,-4.776 -3.435,-7.341 -1.067,-2.908 -1.864,-5.838 -2.396,-8.8 -0.176,-0.971 -0.277,-1.949 -0.391,-2.925 -0.241,-2.003 -0.407,-4.013 -0.407,-6.037 0,-2.774 0.211,-5.472 0.55,-8.127 0.072,-0.564 0.108,-1.139 0.196,-1.698 0.495,-3.186 1.242,-6.288 2.236,-9.304 0.997,-3.015 2.246,-5.843 3.755,-8.48 0.463,-0.81 0.998,-1.568 1.506,-2.34 1.157,-1.749 2.393,-3.443 3.795,-5.01 2.027,-2.261 4.325,-4.287 6.897,-6.078 2.575,-1.789 5.424,-3.345 8.547,-4.663 3.123,-1.321 6.503,-2.308 10.145,-2.966 3.637,-0.662 7.533,-0.989 11.686,-0.989 4.71,0 8.523,0.55 12.064,1.647 3.543,1.1 6.816,2.746 10.444,4.946 1.6,0.969 3.116,2.023 4.574,3.138 -3.661,1.118 -7.442,2.103 -11.299,3.001 -2.709,-1.151 -5.659,-1.979 -9,-2.392"
               style="fill:#000000;fill-opacity:1;fill-rule:nonzero;stroke:none"
               id="path3447" />
          </g>
          <g
             style="fill:#000000"
             id="g3449"
             transform="translate(503.1006,309.5752)">
            <path
               d="m 0,0 c -14.564,1.05 -33.058,1.831 -41.073,2.436 -2.025,0.124 -4.413,0.343 -7.168,0.658 -2.761,0.314 -5.01,0.785 -6.754,1.413 -2.025,0.691 -3.508,1.727 -4.449,3.11 -0.943,1.381 -1.415,3.171 -1.415,5.371 l 0,54.086 c 3.07,4.398 6.806,7.789 11.203,10.177 4.397,2.386 8.234,3.581 11.517,3.581 -0.209,-1.131 -0.437,-2.261 -0.678,-3.392 -0.247,-1.131 -0.371,-2.389 -0.371,-3.77 0,-2.198 1.033,-4.208 3.092,-6.03 2.058,-1.823 5.04,-2.732 8.952,-2.732 3.624,0 6.314,1.24 8.058,3.721 1.747,2.482 2.617,5.323 2.617,8.529 0,4.334 -1.379,7.788 -4.133,10.364 -2.757,2.576 -6.336,3.863 -10.731,3.863 -4.397,0 -9.251,-1.318 -14.552,-3.957 -5.306,-2.637 -10.124,-6.501 -14.45,-11.59 l -0.524,0 0,13.098 -1.464,1.318 -34.341,-2.073 0,-6.218 c 2.093,-0.127 4.045,-0.361 5.86,-0.706 1.816,-0.345 3.387,-0.894 4.714,-1.648 1.813,-1.13 3.228,-2.635 4.237,-4.517 1.014,-1.881 1.52,-3.796 1.52,-5.741 l 0,-57.318 c 0,-2.257 -0.47,-4.094 -1.412,-5.505 -0.942,-1.412 -2.393,-2.399 -4.345,-2.964 -4.012,-1.16 -8.381,-1.256 -12.532,-1.267 -1.213,-0.003 -2.427,0.044 -3.636,0.139 -2.109,0.124 -3.814,0.329 -5.115,0.612 -1.301,0.282 -2.758,0.706 -4.374,1.271 -2.038,0.753 -3.498,1.806 -4.375,3.158 -0.88,1.349 -1.316,3.124 -1.316,5.323 l 0,48.338 c 0,9.862 -2.485,17.417 -7.45,22.662 -4.964,5.245 -12.058,7.869 -21.287,7.869 -4.473,0 -8.511,-0.503 -12.112,-1.509 -3.601,-1.004 -6.729,-2.261 -9.385,-3.768 -3.077,-1.761 -5.558,-3.439 -7.447,-5.042 -1.887,-1.602 -3.985,-3.439 -6.291,-5.512 l -0.419,0 0,37.834 c -1.706,0.305 -3.408,0.601 -5.118,0.911 -4.782,0.917 -9.574,1.925 -14.355,2.963 l -0.625,0.124 c -7.408,1.614 -14.778,3.322 -21.999,5.001 -29.253,6.796 -59.501,13.826 -90.272,13.826 -1.933,0 -3.876,-0.028 -5.819,-0.085 -16.12,-0.001 -31.699,-1.847 -45.988,-5.391 15.154,0.723 30.309,0.49 46.404,-0.339 1.946,-0.044 3.886,-0.116 5.817,-0.217 30.729,-1.589 59.877,-7.818 89.238,-15.12 3.436,-0.855 6.845,-1.968 10.306,-2.952 7.816,-2.196 12.938,-5.028 12.938,-9.854 l 0,-90.486 c 0,-2.264 -0.489,-4.104 -1.458,-5.517 -0.971,-1.415 -2.426,-2.404 -4.366,-2.968 -1.178,-0.316 -2.636,-0.552 -4.367,-0.709 -1.735,-0.158 -3.398,-0.299 -4.99,-0.423 l 0,-6.218 33.827,0 c 4.589,2.245 9.218,4.435 13.95,6.473 -0.907,0.111 -1.774,0.245 -2.603,0.403 -1.639,0.314 -3.228,0.785 -4.762,1.413 -1.954,0.755 -3.403,1.822 -4.345,3.204 -0.942,1.381 -1.413,3.141 -1.413,5.277 l 0,53.426 c 0.699,1.069 1.679,2.388 2.938,3.959 1.259,1.57 3.079,3.141 5.458,4.71 2.446,1.51 5.227,2.781 8.343,3.817 3.113,1.037 6.486,1.556 10.124,1.556 4.968,0 9.183,-1.79 12.646,-5.373 3.464,-3.579 5.196,-8.669 5.196,-15.265 l 0,-46.246 c 0,-9.593 7.765,-17.354 17.357,-17.354 l 78.694,0 c 27.864,0 46.967,-1.732 59.986,-3.907 -3.69,0.699 -7.191,1.73 -10.392,3.085 C 5.447,-3.307 2.604,-1.744 0,0"
               style="fill:#000000;fill-opacity:1;fill-rule:nonzero;stroke:none"
               id="path3451" />
          </g>
          <g
             style="fill:#000000"
             id="g3453"
             transform="translate(329.6738,306.3838)">
            <path
               d="m 0,0 0,0 c -2.374,-1.099 -4.907,-2.306 -7.717,-3.68 l -0.756,-0.352 0.039,0 0.717,0.352 C -4.907,-2.306 -2.374,-1.099 0,0"
               style="fill:#000000;fill-opacity:1;fill-rule:nonzero;stroke:none"
               id="path3455" />
          </g>
          <g
             style="fill:#000000"
             id="g3457"
             transform="translate(509.6006,342.1416)">
            <path
               d="m 0,0 c 1.099,-7.383 3.24,-12.91 6.471,-16.828 3.217,-0.201 6.436,-0.471 9.643,-0.791 3.211,-0.321 6.411,-0.728 9.602,-1.21 3.194,-0.484 6.38,-1.033 9.552,-1.646 3.144,-0.607 6.275,-1.286 9.378,-2.078 3.123,-0.796 6.21,-1.713 9.29,-2.657 0.372,-0.113 0.746,-0.222 1.115,-0.343 2.848,-0.926 5.719,-1.796 8.523,-2.852 2.187,-0.824 4.339,-1.735 6.481,-2.666 1.288,-0.563 2.582,-1.191 3.937,-1.818 5.754,-2.582 8.144,-4.156 13.477,-7.448 8.737,-5.632 16.112,-12.568 23.056,-20.257 6.857,-7.591 13.923,-15.107 22.223,-21.15 2.372,-1.729 4.845,-3.317 7.361,-4.826 12.985,-7.785 29.623,-14.354 48.294,-14.354 1.627,0 3.266,0.049 4.922,0.153 22.282,2.94 18.323,15.639 18.271,15.639 -0.133,0.599 -3.519,8.461 -15.781,8.461 -5.549,0 -11.082,-0.66 -16.633,-0.326 -5.664,0.342 -11.308,1.218 -16.807,2.617 -9.385,2.388 -18.64,5.781 -27.209,10.305 -4.787,2.526 -9.473,5.384 -13.927,8.461 7.319,-4.854 15.194,-8.749 23.376,-11.909 8.107,-3.133 16.53,-5.357 25.139,-6.51 1.997,-0.267 4.443,-0.796 6.782,-0.796 1.891,0 3.71,0.346 5.165,1.457 1.982,1.518 1.535,3.19 0.029,4.826 18.159,5.462 13.024,16.875 12.855,16.876 -0.005,0 -0.006,-0.011 -0.001,-0.032 -0.204,0.407 -3.908,6.765 -13.479,6.765 -1.788,10e-4 -3.779,-0.22 -5.992,-0.745 -2.84,-0.47 -5.737,-0.808 -8.655,-1.126 -8.87,-0.785 -17.993,-1.844 -27.021,-1.844 -8.36,0 -16.638,0.908 -24.567,3.785 6.506,-2.028 13.234,-2.766 20.001,-2.766 7.527,0 15.102,0.913 22.477,1.981 3.126,0.451 6.274,1.311 8.361,3.881 1.209,1.493 0.824,2.965 0.215,4.568 -0.092,0.184 -2.49,3.95 -8.335,3.95 -0.973,0 -2.04,-0.104 -3.208,-0.347 -10.7,-2.956 -21.705,-5.808 -32.864,-5.808 -1.26,0 -2.519,0.036 -3.782,0.112 5.822,0.017 11.598,0.903 17.25,2.242 4.9,1.161 10.823,2.399 15.168,5.05 2.973,1.817 5.148,4.578 2.666,7.775 -0.112,0.144 -2.601,2.628 -6.78,2.628 -1.984,0 -4.35,-0.56 -7.021,-2.197 -8.277,-4.393 -17.805,-7.541 -26.583,-9.792 -1.212,-0.301 -2.404,-0.479 -3.535,-0.479 -1.987,0 -3.792,0.551 -5.208,1.967 -8.394,6.547 -17.651,11.912 -27.261,15.9 C 52.077,-5.592 25.898,-1.212 0,0"
               style="fill:#000000;fill-opacity:1;fill-rule:nonzero;stroke:none"
               id="path3459" />
          </g>
          <g
             style="fill:#000000"
             id="g3461"
             transform="translate(483.0791,342.2007)">
            <path
               d="m 0,0 c -12.521,-0.442 -24.999,-1.522 -37.399,-3.201 l 0,-13.464 c 11.017,1.411 22.265,2.245 33.661,2.245 2.765,0 5.539,-0.049 8.321,-0.152 -0.926,1.93 -1.776,3.914 -2.468,6.002 C 1.206,-5.807 0.519,-2.922 0,0"
               style="fill:#000000;fill-opacity:1;fill-rule:nonzero;stroke:none"
               id="path3463" />
          </g>
          <g
             style="fill:#000000"
             id="g3465"
             transform="translate(427.4453,195.1338)">
            <path
               d="m 0,0 c -0.915,0.599 -2.118,0.042 -2.438,-0.929 -0.185,-0.557 -0.21,-1.147 -0.358,-1.715 -0.176,-0.674 -0.432,-1.337 -0.663,-1.996 -0.197,-0.562 -0.427,-1.114 -0.641,-1.671 -0.092,-0.243 -0.271,-0.531 -0.3,-0.793 -0.291,-2.466 2.21,-3.824 3.614,-5.433 0.799,-0.916 1.829,-1.731 2.911,-2.503 1.764,-1.262 3.713,-2.373 5.365,-3.381 2.152,-1.316 4.392,-2.422 6.771,-3.114 0.864,-0.257 2.348,-0.582 3.738,-0.582 1.094,0 2.833,0.253 2.839,1.731 -0.74,-0.377 -1.761,-0.546 -2.499,-0.071 -0.942,0.605 -1.247,1.733 -1.568,2.726 -0.38,1.172 -1.252,1.704 -2.418,1.94 -1.051,0.212 -2.178,0.433 -2.945,1.251 -0.55,0.588 -0.45,1.253 -0.799,1.889 -0.246,0.448 -0.889,0.538 -1.088,1.029 -0.265,0.66 0.415,0.679 0.748,0.961 0.427,0.362 0.4,1.254 0.321,1.749 -0.191,1.201 -0.886,1.94 -1.798,2.641 -0.48,0.37 -0.649,0.752 -0.545,1.353 0.177,-0.022 0.331,-0.134 0.522,-0.081 0.476,0.135 0.518,0.744 0.589,1.14 0.105,0.577 0.309,1.499 -0.067,2.021 C 9.025,-1.47 8.476,-1.161 8.022,-1.215 7.391,-1.29 6.742,-1.553 6.142,-1.752 5.626,-1.926 5.098,-2.013 4.576,-2.013 c -1.672,0 -2.917,0.866 -4.015,1.63 L 0,0 Z"
               style="fill:#000000;fill-opacity:1;fill-rule:nonzero;stroke:none"
               id="path3467" />
          </g>
          <g
             style="fill:#000000"
             id="g3469"
             transform="translate(451.9922,196.0029)">
            <path
               d="M 0,0 C 0.727,0.323 2.321,1.026 2.249,1.989 2.27,1.714 -0.912,1.583 -1.193,1.57 -3.112,1.486 -4.888,2.048 -6.634,2.793 c -1.381,0.59 -2.96,1.19 -3.817,2.502 -0.229,0.35 -0.261,0.771 -0.418,1.152 -0.241,0.579 -0.467,1.3 -0.801,1.827 -1.024,1.618 -2.163,-0.097 -2.986,-0.96 0.323,0.602 0.683,1.22 0.884,1.876 0.388,1.275 0.034,2.57 -1.208,3.14 -0.935,0.43 -1.951,0.774 -2.642,1.577 -0.623,0.724 -0.354,2.112 -0.999,2.8 -0.345,0.368 -0.943,0.349 -1.352,0.071 -0.649,-0.44 -0.5,-1.247 -0.365,-1.912 0.227,-1.112 0.394,-2.177 0.156,-3.303 -0.316,-1.507 -1.381,-2.646 -2.765,-3.262 -0.672,-0.299 -1.391,-0.45 -2.138,-0.45 -0.866,0 -1.981,0.357 -2.801,0.609 -0.321,0.098 -0.982,0.711 -1.29,0.355 -0.246,-0.283 0.151,-0.815 0.236,-1.1 0.376,-1.266 -0.624,-2.396 -0.378,-3.602 0.17,-0.834 0.639,-1.792 1.449,-1.983 0.181,-0.044 0.366,-0.064 0.58,-0.064 0.3,0 0.586,0.038 0.884,0.077 0.349,0.045 0.712,0.091 1.108,0.091 0.86,0 1.602,-0.224 2.335,-0.709 0.206,-0.136 0.408,-0.277 0.61,-0.418 0.863,-0.6 1.607,-1.119 2.383,-1.119 0.213,0 0.428,0.037 0.657,0.114 1.31,0.436 2.416,0.771 3.716,0.771 0.39,0 0.782,-0.03 1.196,-0.092 l 0.098,-0.019 c 0.688,-0.164 1.357,-0.326 1.98,-0.484 2.285,-0.576 4.949,-1.161 7.519,-1.17 C -3.117,-0.896 -1.472,-0.654 0,0"
               style="fill:#000000;fill-opacity:1;fill-rule:nonzero;stroke:none"
               id="path3471" />
          </g>
          <g
             style="fill:#000000"
             id="g3473"
             transform="translate(419.3281,321.9863)">
            <path
               d="M 0,0 0,12.561 C -10.157,10.498 -20.239,8.06 -30.228,5.289 l 0,-4.9 c 0,-1.513 0.255,-2.672 0.757,-3.447 0.466,-0.713 1.369,-1.319 2.689,-1.808 1.425,-0.499 2.758,-0.887 3.912,-1.138 1.128,-0.244 2.673,-0.426 4.587,-0.539 1.159,-0.068 2.313,-0.135 3.475,-0.127 3.795,0.024 7.835,0.061 11.503,1.118 1.193,0.344 1.989,0.857 2.471,1.577 0.352,0.525 0.568,1.216 0.712,2.037 C -0.06,-1.582 0,-0.578 0,0"
               style="fill:#000000;fill-opacity:1;fill-rule:nonzero;stroke:none"
               id="path3475" />
          </g>
          <g
             style="fill:#000000"
             id="g3477"
             transform="translate(299.041,217.7568)">
            <path
               d="m 0,0 c 8.196,8.68 21.451,15.012 31.772,18.271 10.28,3.6 24.07,5.65 36.354,6.063 12.282,0.825 22.199,-0.496 22.221,-0.33 -14.624,4.969 -26.49,4.681 -35.046,4.205 C 46.687,27.48 41.003,26.384 37.291,25.404 29.841,23.528 29.933,23.199 29.904,23.301 20.205,20.094 10.844,15.42 3.093,8.694 -4.621,1.914 -9.941,-7.355 -12.48,-17.269 -12.331,-17.43 -8.505,-8.58 0,0"
               style="fill:#000000;fill-opacity:1;fill-rule:nonzero;stroke:none"
               id="path3479" />
          </g>
          <g
             style="fill:#000000"
             id="g3481"
             transform="translate(32.167,277.9746)">
            <path
               d="m 0,0 c 5.532,0 11.196,-1.928 14.975,-3.378 l 0.28,-0.107 3.233,1.004 -1.842,2.896 -0.312,0.091 C 11.019,2.057 6.482,2.811 2.464,2.811 -2.916,2.811 -6.965,0.717 -10.543,-2.014 -7.632,-0.182 -3.852,0 0,0"
               style="fill:#000000;fill-opacity:1;fill-rule:nonzero;stroke:none"
               id="path3483" />
          </g>
          <g
             style="fill:#000000"
             id="g3485"
             transform="translate(103.5869,165.1729)">
            <path
               d="m 0,0 c -3.408,-8.988 -3.962,-20.792 -2.364,-30.104 1.259,28.938 18.115,52.84 42.607,64.063 1.001,1.391 2.045,3.335 3.223,4.652 -1.405,0.129 -2.836,0.169 -4.281,0.169 -0.369,0 -1.215,0.005 -1.584,0 C 19.352,31.257 6.454,17.02 0,0"
               style="fill:#000000;fill-opacity:1;fill-rule:nonzero;stroke:none"
               id="path3487" />
          </g>
          <g
             style="fill:#000000"
             id="g3489"
             transform="translate(43.46,267.873)">
            <path
               d="M 0,0 C 2.682,0 5.344,-0.294 7.913,-0.873 L 8.15,-0.927 12.845,0.283 8.999,3.408 8.736,3.451 C 6.415,4.118 4.97,4.212 2.796,4.479 -10.146,6.067 -21.085,-0.429 -28.768,-11.801 -21.912,-4.009 -10.676,0 0,0"
               style="fill:#000000;fill-opacity:1;fill-rule:nonzero;stroke:none"
               id="path3491" />
          </g>
          <g
             style="fill:#000000"
             id="g3493"
             transform="translate(539.1777,135.4375)">
            <path
               d="m 0,0 c -0.753,-0.021 -1.506,-0.031 -2.259,-0.031 -2.81,0 -5.6,0.151 -8.292,0.448 -2.803,0.308 -5.257,0.726 -7.498,1.278 -1.712,0.421 -3.282,1.182 -5.07,1.252 -2.636,0.103 -5.611,-0.575 -8.114,-1.384 -2.265,-0.731 -4.458,-1.978 -5.234,-4.367 -0.428,-1.315 -0.424,-2.734 -0.433,-4.103 -0.001,-0.109 -7.765,0.805 -7.625,-2.094 0.039,-0.811 1.385,-1.937 2.072,-2.189 -1.7,-0.079 -2.964,0.615 -4.484,1.247 -1.424,0.591 -2.651,0.286 -4.096,0.019 -2.733,-0.505 -5.158,0.226 -7.857,0.455 -1.594,0.136 -0.959,-1.125 -1.071,-2.098 0.11,0.965 -3.73,2.412 -4.376,2.736 -4.14,2.083 -8.555,3.749 -12.478,6.233 -1.247,0.788 -2.417,1.702 -3.43,2.776 -0.921,0.976 -1.703,2.101 -2.285,3.313 -0.361,0.749 -0.658,1.541 -0.902,2.335 -0.514,2.572 -0.632,5.365 -0.234,8.259 -3.4,-8.09 -2.953,-18.06 2.715,-25.042 0.757,-1.099 1.578,-2.096 2.302,-2.905 2.268,-2.536 5.342,-4.201 7.523,-6.505 1.343,-1.42 2.347,-3.079 2.607,-5.342 0.173,-1.496 0.076,-2.724 -0.713,-4.037 -0.642,-1.067 -2.817,-2.078 -1.675,-3.428 0.178,-0.015 0.347,-0.022 0.51,-0.022 2.187,0 3.078,1.309 5.093,2.138 3.987,1.632 8.518,0.547 12.469,2.388 2.93,1.364 5.846,2.776 8.939,3.739 2.029,0.632 4.172,1.016 6.316,1.039 2.25,0.025 4.489,-0.401 6.74,-0.25 2.2,0.15 3.973,1.234 5.59,2.67 3.082,2.738 5.708,5.811 9.239,8.025 1.086,0.681 2.22,1.286 3.381,1.829 6.414,3.001 12.553,7.361 18.24,11.677 C 4.996,0.053 4.383,0.049 3.771,0.046 2.536,0.04 1.278,0.035 0,0"
               style="fill:#000000;fill-opacity:1;fill-rule:nonzero;stroke:none"
               id="path3495" />
          </g>
          <g
             style="fill:#000000"
             id="g3497"
             transform="translate(449.0508,101.1191)">
            <path
               d="m 0,0 c 0.989,2.559 2.003,4.663 3.099,6.433 0.284,0.458 0.582,0.974 0.897,1.522 0.486,0.845 1.711,2.357 1.221,3.402 -0.289,0.617 -1.142,0.626 -1.719,0.654 -0.899,0.043 -1.779,0.211 -2.672,0.374 -1.883,0.345 -3.75,0.69 -5.53,0.69 -0.746,0 -1.477,-0.06 -2.188,-0.207 -2.709,-0.557 -4.988,-2.212 -7.083,-3.933 -2.213,-1.82 -4.531,-3.541 -6.615,-5.51 -1.246,-1.178 -2.429,-2.42 -3.556,-3.712 -3.39,-3.887 -6.445,-8.158 -8.474,-12.924 -0.959,-2.253 -3.47,-9.59 0.973,-9.894 -0.267,2.117 0.141,5.744 2.398,6.763 0.508,0.231 1.056,0.101 1.584,0.211 0.86,0.18 1.505,0.748 2.109,1.357 0.49,0.492 0.964,1.06 1.406,1.594 0.394,0.477 0.674,0.989 1.034,1.482 0.653,0.894 1.529,1.662 2.193,2.558 -0.398,-0.537 -0.019,-2.35 0.378,-2.804 0.975,-1.114 2.311,-0.26 3.163,0.504 0.683,0.611 1.295,1.341 2.151,1.715 0.84,0.368 1.771,0.404 2.545,0.942 0.549,0.382 1.066,0.882 1.713,1.093 0.773,0.251 1.437,-0.254 2.181,-0.081 -1.233,-0.287 -1.396,-1.594 -0.486,-2.272 1.04,-0.774 2.316,-1.556 3.665,-1.491 2.548,0.121 3.044,3.727 3.597,5.609 C -1.426,-3.923 -0.753,-1.946 0,0"
               style="fill:#000000;fill-opacity:1;fill-rule:nonzero;stroke:none"
               id="path3499" />
          </g>
          <g
             style="fill:#000000"
             id="g3501"
             transform="translate(490.3887,105.7383)">
            <path
               d="m 0,0 -0.11,-0.063 c -1.081,-0.626 -2.2,-1.272 -3.452,-1.791 -2.329,-0.963 -4.754,-1.137 -6.894,-1.292 -1.835,-0.131 -3.567,-0.255 -4.984,-0.835 -0.5,-0.207 -0.928,-0.471 -1.423,-0.779 -1.627,-1.011 -4.708,-2.444 -6.658,-1.448 -1.05,0.538 -1.792,2.328 -1.792,3.444 0,1.505 1.013,2.821 2.048,3.808 0.148,0.141 0.37,0.352 0.436,0.435 0.283,0.478 0.424,0.976 0.284,2.186 -0.162,1.406 -0.716,2.519 -1.851,3.72 -1.416,1.497 -3.395,2.678 -5.327,1.312 -1.765,-1.249 -3.216,-3.434 -4.3,-5.27 -0.61,-1.032 -1.175,-2.087 -1.806,-3.107 -1.099,-1.773 -2.037,-3.82 -2.865,-5.962 -1.131,-2.924 -2.054,-6.017 -2.882,-8.843 -2.007,-6.85 -2.371,-14.301 -0.359,-21.194 1.466,-5.019 3.913,-10.523 7.948,-14.004 -0.931,0.803 -1.581,2.797 -1.99,3.918 -0.506,1.394 -0.886,2.93 -1.028,4.408 -0.276,2.893 -0.109,5.958 0.595,8.77 0.459,1.832 1.041,3.631 1.485,5.467 0.654,2.693 1.845,4.982 3.468,7.221 0.537,0.741 1.255,1.994 2.26,2.136 0.846,0.12 1.508,-0.681 2.364,-0.546 1.054,0.166 1.566,1.371 2.462,1.823 0.773,0.39 1.444,-0.061 2.22,0.149 1.221,0.331 1.513,1.541 2.443,2.21 1.253,0.902 2.768,-0.506 4.145,-0.506 2.795,0 5.842,2.646 8.768,5.88 1.725,0.686 3.348,2.61 4.443,3.747 1.119,1.159 2.378,2.156 3.674,3.109 0.557,0.409 2.84,1.836 2.784,2.618 C 4.05,1.512 3.038,1.109 2.607,0.931 1.79,0.591 0.756,0.435 0,0"
               style="fill:#000000;fill-opacity:1;fill-rule:nonzero;stroke:none"
               id="path3503" />
          </g>
          <g
             style="fill:#000000"
             id="g3505"
             transform="translate(60.7075,428.9907)">
            <path
               d="m 0,0 c 0.932,-0.853 1.513,-2.076 1.696,-3.32 0.251,-1.706 -0.703,-3.43 -1.894,-4.587 -1.796,-1.748 -4.488,-1.665 -6.513,-0.378 -3.204,2.037 -2.583,6.374 -2.638,6.228 -1.987,-5.457 1.842,-9.589 4.676,-10.29 2.993,-0.923 5.163,-0.041 6.275,0.664 2.262,1.555 1.984,1.865 2.057,1.782 C 6.044,-7.105 5.982,-2.513 3.354,0.135 0.857,2.872 -3.644,3.43 -6.679,1.227 -6.774,1.156 -2.706,2.478 0,0"
               style="fill:#000000;fill-opacity:1;fill-rule:nonzero;stroke:none"
               id="path3507" />
          </g>
          <g
             style="fill:#000000"
             id="g3509"
             transform="translate(593.542,215.9063)">
            <path
               d="M 0,0 C 0.296,2.24 0.536,4.487 0.711,6.736 1.539,17.39 0.968,28.111 -1.076,38.559 -4.912,60.554 -19.347,78.938 -37.2,90.348 c -3.045,-1.678 -5.743,-2.863 -8.462,-3.708 -3.427,-1.062 -7.026,-1.606 -11.119,-1.743 0.273,-0.518 0.537,-1.043 0.746,-1.607 3.559,-8.717 0.033,-19.22 -0.032,-21.186 -0.317,-4.145 2.78,-8.241 7.536,-9.536 0.646,-0.177 1.3,-0.262 1.945,-0.262 4.103,0 7.934,3.425 8.32,8.358 0.006,0.093 0.006,0.229 0.006,0.358 0.039,2.835 -0.602,14.124 -7.204,23.518 1.663,-0.985 3.276,-2.05 4.86,-3.153 C -25.533,70.896 -14.252,55.299 -11.132,36.521 -9.517,27.75 -9.074,18.622 -9.743,9.508 -6.38,6.508 -3.116,3.334 0,0"
               style="fill:#000000;fill-opacity:1;fill-rule:nonzero;stroke:none"
               id="path3511" />
          </g>
          <g
             style="fill:#000000"
             id="g3513"
             transform="translate(573.957,187.2012)">
            <path
               d="m 0,0 c -10.092,-5.141 -29.67,-11.228 -22.446,-21.118 -1.078,-0.295 -1.999,-1.035 -2.886,-1.682 -0.8,-0.583 -1.563,-1.033 -2.106,-1.915 -1.038,-1.681 -1.739,-3.436 -3.273,-4.767 -2.752,-2.389 -6.935,-2.917 -10.378,-3.613 -4.319,-0.872 -8.647,-1.374 -13.035,-1.732 -0.354,-0.012 -0.705,-0.018 -1.054,-0.018 -5.532,0 -10.472,1.545 -14.662,6.308 -5.391,6.296 -9.039,14.843 -9.899,24.192 -0.926,-14.703 5.104,-30.221 17.563,-38.593 3.119,-2.288 7.556,-3.771 10.027,-4.378 2.353,-0.58 4.736,-0.951 7.129,-1.213 2.646,-0.292 5.307,-0.431 7.982,-0.431 0.726,0 1.453,0.01 2.182,0.03 9.296,0.254 17.538,-1.029 23.773,7.106 3.077,4.01 4.814,8.761 7.012,13.26 2.318,4.741 5.607,8.445 8.368,12.89 5.666,9.572 9.826,19.822 12.555,30.374 L 7.843,23.888 C 6.15,15.658 3.55,7.597 0,0"
               style="fill:#000000;fill-opacity:1;fill-rule:nonzero;stroke:none"
               id="path3515" />
          </g>
          <g
             style="fill:#000000"
             id="g3517"
             transform="translate(581.0938,307.292)">
            <path
               d="M 0,0 C -0.379,0.178 -0.746,0.341 -1.119,0.514 0.2,-0.344 1.52,-1.204 2.8,-2.119 c 1.727,-1.234 3.316,-2.619 4.801,-4.136 2.337,-2.388 4.791,-4.909 5.515,-8.29 0.373,-1.744 0.43,-3.723 -0.168,-5.446 -0.844,-2.435 -2.686,-4.579 -4.739,-6.06 -0.245,-0.177 -2.992,-1.962 -3.013,-1.926 0.756,-1.305 1.784,-3.312 2.46,-4.651 0,0 2.151,1.663 2.5,1.958 2.629,2.218 4.435,4.378 5.721,7.343 0.539,1.242 0.885,2.844 1.028,4.189 0.16,1.506 -0.032,2.998 -0.471,4.424 -0.28,0.904 -0.659,1.782 -1.11,2.62 -1.641,3.046 -3.85,5.54 -6.574,7.66 -0.079,0.062 -0.164,0.116 -0.243,0.176 -2.089,1.209 -4.155,2.28 -7.168,3.633 L 0,0 Z"
               style="fill:#000000;fill-opacity:1;fill-rule:nonzero;stroke:none"
               id="path3519" />
          </g>
          <g
             style="fill:#000000"
             id="g3521"
             transform="translate(395.2129,273.7295)">
            <path
               d="m 0,0 c -7.948,-4.033 -16.526,-4.732 -26.571,-5.289 -5.014,-0.278 -8.664,0.279 -13.642,1.129 -4.183,-0.751 -11.025,-1.926 -14.166,-2.414 2.641,-0.512 6.539,-1.253 8.118,-1.481 0.819,-0.118 1.636,-0.248 2.454,-0.378 1.096,-0.174 2.191,-0.348 3.29,-0.495 3.897,-0.52 7.73,-0.784 11.393,-0.784 8.869,0 17.03,1.536 24.255,4.567 3.182,1.335 6.163,2.876 8.857,4.579 L 5.2,0.199 0,0 Z"
               style="fill:#000000;fill-opacity:1;fill-rule:nonzero;stroke:none"
               id="path3523" />
          </g>
          <g
             style="fill:#000000"
             id="g3525"
             transform="translate(420.1797,99.207)">
            <path
               d="m 0,0 0.758,0.979 c 2.505,3.246 5.345,6.923 8.815,9.18 0.215,0.14 0.444,0.298 0.681,0.468 -1.082,-0.09 -2.164,-0.174 -3.239,-0.235 -4.831,-0.243 -9.683,-0.37 -14.536,-0.37 -6.589,0 -13.182,0.245 -19.739,0.747 -0.6,-4.01 -1.656,-7.913 -3.144,-11.654 7.749,-0.677 15.528,-1.009 23.3,-1.009 1.897,0 3.793,0.034 5.689,0.072 0.277,0.368 0.561,0.738 0.856,1.11 L 0,0 Z"
               style="fill:#000000;fill-opacity:1;fill-rule:nonzero;stroke:none"
               id="path3527" />
          </g>
          <g
             style="fill:#000000"
             id="g3529"
             transform="translate(397.7617,229.5176)">
            <path
               d="M 0,0 C -2.826,0.79 -5.785,1.324 -8.771,1.172 -25.429,0.321 -42.159,-9.762 -47.005,-28.84 c -5.489,-21.603 10.299,-47.912 35.661,-49.92 2.23,-0.177 4.399,-0.376 6.576,-0.376 1.503,0 3.01,0.095 4.546,0.358 3.616,0.618 7.075,1.907 10.337,3.563 6.872,3.489 12.159,8.976 16.656,15.161 2.444,3.659 3.495,8.222 -1.384,12.491 -4.296,-14.776 -17.445,-24.187 -32.78,-24.187 -1.167,0 -2.34,0.107 -3.534,0.201 -22.06,1.737 -35.368,23.304 -30.335,43.476 C -36.919,-10.668 -19.73,-2.823 0,0"
               style="fill:#000000;fill-opacity:1;fill-rule:nonzero;stroke:none"
               id="path3531" />
          </g>
          <g
             style="fill:#000000"
             id="g3533"
             transform="translate(542.0215,129.6465)">
            <path
               d="m 0,0 c -1.646,-15.452 -5.123,-27.074 -12.229,-39.307 -11.174,-19.854 -31.546,-30.087 -46.662,-41.993 17.672,6.013 37.21,17.588 49.64,37.749 C -0.707,-30.104 3.893,-13.66 4.93,3.626 L 0,0 Z"
               style="fill:#000000;fill-opacity:1;fill-rule:nonzero;stroke:none"
               id="path3535" />
          </g>
          <g
             style="fill:#000000"
             id="g3537"
             transform="translate(64.4771,259.8447)">
            <path
               d="M 0,0 C -0.676,0 -1.344,-0.036 -2.003,-0.102 -1.337,-0.04 -0.669,0 0,0"
               style="fill:#000000;fill-opacity:1;fill-rule:nonzero;stroke:none"
               id="path3539" />
          </g>
          <g
             style="fill:#000000"
             id="g3541"
             transform="translate(66.0166,259.7832)">
            <path
               d="M 0,0 C -0.509,0.038 -1.021,0.062 -1.54,0.062 -1.026,0.062 -0.513,0.036 0,0"
               style="fill:#000000;fill-opacity:1;fill-rule:nonzero;stroke:none"
               id="path3543" />
          </g>
          <g
             style="fill:#000000"
             id="g3545"
             transform="translate(20.5234,217.5098)">
            <path
               d="m 0,0 c -9.421,-13.99 -8.274,-26.694 -8.258,-27.289 1.644,9.53 5.52,16.968 10.237,22.696 C 1.737,-4.105 1.496,-3.619 1.277,-3.122 0.795,-2.1 0.374,-1.057 0,0"
               style="fill:#000000;fill-opacity:1;fill-rule:nonzero;stroke:none"
               id="path3547" />
          </g>
          <g
             style="fill:#000000"
             id="g3549"
             transform="translate(463.3516,19.0537)">
            <path
               d="m 0,0 c -23.925,-1.101 -41.884,2.374 -41.864,2.214 57.152,3.169 84.174,15.135 97.555,19.372 13.259,5.272 13.259,5.273 13.259,5.273 17.329,7.734 34.105,17.072 49.212,28.62 15.091,11.618 28.341,25.441 40.379,40.155 -0.157,0.119 -7.855,-16.502 -23.722,-34.673 C 122.922,47.335 71.329,3.281 0,0"
               style="fill:#000000;fill-opacity:1;fill-rule:nonzero;stroke:none"
               id="path3551" />
          </g>
          <g
             style="fill:#000000"
             id="g3553"
             transform="translate(636.2139,224.5391)">
            <path
               d="m 0,0 c -0.911,0 -1.911,-2.908 -2.134,-3.971 -0.779,-3.713 -2.383,-7.176 -4.557,-10.268 -5.216,-7.573 -11.846,-14.012 -13.199,-15.365 -2.328,-2.925 -1.714,-7.561 1.314,-10.33 1.291,-1.177 2.886,-1.75 4.509,-1.75 2.209,0 4.469,1.061 6.082,3.098 1.222,1.24 4.355,7.841 6.624,15.4 0.602,2.013 1.147,4.09 1.577,6.154 0.57,2.747 0.984,5.514 1.161,8.316 0.137,2.127 0.101,5.126 -0.414,7.187 C 0.734,-0.616 0.464,-0.167 0.181,-0.04 0.121,-0.013 0.061,0 0,0"
               style="fill:#000000;fill-opacity:1;fill-rule:nonzero;stroke:none"
               id="path3555" />
          </g>
          <g
             style="fill:#000000"
             id="g3557"
             transform="translate(628.4834,267.8701)">
            <path
               d="m 0,0 c 0.439,-0.87 0.887,-1.735 1.297,-2.631 1.963,-4.286 1.836,-8.946 1.017,-13.495 -0.616,-3.44 -2.618,-6.454 -3.283,-9.818 -0.641,-3.235 0.549,-3.58 2.092,-3.58 0.21,0 0.425,0.006 0.644,0.012 0.217,0.007 0.438,0.013 0.659,0.013 0.968,0 1.92,-0.121 2.545,-0.901 2.406,-2.999 -3.426,-7.522 -0.746,-10.248 0.412,-0.419 0.813,-0.587 1.205,-0.587 0.793,0 1.543,0.687 2.249,1.375 0.706,0.687 1.367,1.376 1.982,1.376 0.664,0 1.274,-0.802 1.826,-3.272 1.969,-8.779 1.94,-18.723 1.275,-27.652 -0.904,-23.387 -9.197,-45.193 -10.357,-49.649 -0.665,-3.837 -0.009,-7.803 1.732,-11.357 2.366,-4.827 6.747,-8.886 12.634,-10.774 1.697,-0.549 3.435,-0.814 5.161,-0.814 8.315,0 16.341,6.129 18.09,15.89 1.077,5.994 0.699,12.251 0.258,18.299 -0.322,4.352 -0.935,8.645 -1.509,12.958 -0.082,0.605 -0.163,1.209 -0.238,1.812 -0.124,0.955 -0.355,1.98 -0.606,3.04 -0.323,1.786 -0.665,3.567 -1.033,5.346 -3.326,16.191 -8.355,32.011 -13.838,47.588 5.975,-13.777 11.621,-27.701 16.008,-42.263 l 0.076,-0.246 c 0.361,-1.213 0.69,-2.443 1.04,-3.666 0.22,-0.834 0.443,-1.677 0.648,-2.52 0.527,-2.117 0.981,-4.202 1.238,-5.955 0.147,-0.955 0.271,-1.848 0.375,-2.611 0.115,-0.825 0.209,-1.521 0.293,-1.966 0.747,-3.954 0.92,-8.317 2.104,-12.165 2.394,-7.774 10.176,-13.595 19.54,-13.595 0.983,0 1.983,0.065 2.997,0.198 10.232,1.292 17.685,12.216 14.206,23.857 -1.428,4.77 -3.856,9.209 -6.323,13.517 -0.616,1.069 -1.269,2.119 -1.907,3.176 -10.152,15.115 -23.885,27.358 -37.162,39.661 5.852,-4.214 11.781,-8.327 17.502,-12.593 3.247,-2.476 7.064,-5.416 11.464,-6.875 1.284,-0.424 2.615,-0.746 4.023,-0.885 0.107,-0.013 0.212,-0.021 0.316,-0.031 0.419,-0.038 0.837,-0.057 1.253,-0.057 4.067,0 7.977,1.788 10.763,4.808 3.586,3.864 4.381,10.509 1.379,14.885 -2.951,4.303 -9.138,5.911 -13.77,7.545 -5.349,1.889 -10.74,3.433 -16.136,4.996 -3.084,0.893 -6.17,1.791 -9.248,2.769 -3.881,1.229 -7.676,2.826 -11.454,4.347 -4.932,1.985 -10.434,4.655 -14.816,7.672 -2.78,1.915 -5.636,3.827 -8.321,5.866 C 6.206,-6.976 1.662,-3.296 0,0"
               style="fill:#000000;fill-opacity:1;fill-rule:nonzero;stroke:none"
               id="path3559" />
          </g>
          <g
             style="fill:#000000"
             id="g3561"
             transform="translate(614.8994,172.5957)">
            <path
               d="m 0,0 c -7.37,32.385 -36.127,56.195 -65.745,74.642 -7.109,4.318 -14.117,7.415 -21.654,11.264 -11.81,0.658 -13.676,2.063 -25.375,6.333 10.376,-3.113 14.291,-2.91 20.742,-3.233 1.43,-0.071 2.861,-0.068 4.287,-0.068 15.824,0 31.239,2.717 45.365,6.758 0.216,0.08 0.453,0.168 0.675,0.248 0.309,0.116 0.633,0.234 0.947,0.349 -0.789,1.605 -1.644,3.183 -2.573,4.726 -0.19,-0.056 -0.387,-0.115 -0.574,-0.167 -4.783,-1.155 -9.783,-2.137 -14.902,-2.94 -2.044,-3.104 -5.403,-5.131 -9.136,-5.131 -0.911,0 -1.819,0.123 -2.697,0.365 -2.102,0.572 -3.957,1.596 -5.471,2.918 -2.937,-0.166 -5.886,-0.271 -8.842,-0.271 -9.565,0 -19.169,0.909 -28.42,2.994 -17.307,7.3 -35.392,13.546 -53.969,18.773 -4.453,1.098 -8.941,2.216 -13.456,3.31 -21.218,5.143 -43.081,9.789 -65.541,10.001 -0.501,0.005 -1.002,0.007 -1.503,0.007 -7.468,0 -15.003,-0.526 -22.598,-1.669 9.061,2.267 18.118,3.577 27.143,4.189 -4.429,3.039 -7.586,7.754 -8.642,13.214 -2.401,-0.818 -4.801,-1.637 -7.187,-2.49 -8.996,-2.929 -17.656,-6.461 -26.1,-10.334 -2.373,-1.099 -4.906,-2.306 -7.717,-3.68 l -0.716,-0.352 -0.039,0 c -24.159,-11.896 -46.672,-26.161 -69.908,-37.219 -0.034,-0.016 -0.068,-0.032 -0.102,-0.048 -10.929,-5.196 -22.019,-9.683 -33.517,-12.874 -11.531,-3.636 -23.597,-6.377 -35.762,-7.949 -7.631,-0.986 -15.301,-1.51 -22.903,-1.51 -4.021,0 -8.023,0.147 -11.992,0.448 -24.368,1.851 -47.447,9.592 -65.587,25.518 -12.978,11.199 -21.832,26.164 -26.704,42.519 -5.245,11.439 -8.543,23.926 -9.052,37.035 0.996,-8.032 3.037,-15.737 5.894,-23.038 8.772,-22.412 25.397,-40.95 44.317,-53.023 0.397,-0.251 0.786,-0.53 1.185,-0.776 24.207,-14.704 49.705,-20.066 73.907,-20.066 29.477,0 57.035,7.95 78.03,16.653 -24.841,-3.603 -39.202,-8.764 -65.591,-11.015 -25.726,-2.194 -57.77,4.392 -82.472,20.457 -23.617,15.557 -42.906,41.587 -46.325,71.52 -0.014,0.129 -0.042,0.255 -0.056,0.385 -1.453,10.151 -0.625,20.378 2.048,30.133 2.003,5.522 4.464,10.825 7.4,15.802 7.04,11.935 17.507,22.174 28.895,29.966 1.032,0.706 1.951,1.342 2.79,1.925 5.969,4.151 7.811,5.636 15.212,9.917 3.951,2.346 7.515,4.397 10.899,6.268 0.357,0.197 0.693,0.376 1.045,0.569 5.287,2.888 10.681,5.596 16.224,7.959 5.511,2.349 11.26,4.044 16.958,5.866 3.258,1.042 6.506,2.122 9.682,3.393 2.763,1.106 6.174,2.388 8.399,4.439 4.578,3.555 4.931,9.843 1.35,13.507 -0.74,0.761 -1.665,1.456 -2.595,1.964 -1.337,0.732 -2.961,1.189 -4.515,1.189 -0.218,0 -0.434,-0.008 -0.647,-0.027 -1.879,-0.163 -3.2,-1.323 -4.509,-2.567 -0.953,-0.906 -1.905,-1.809 -2.872,-2.716 -1.141,-1.068 -2.29,-2.128 -3.465,-3.161 -2.578,-2.27 -5.218,-4.468 -7.969,-6.526 -9.591,-7.236 -20.327,-12.213 -20.27,-12.283 -0.06,0.064 10.438,5.604 19.555,13.238 3.933,3.267 7.628,6.813 11.178,10.487 0.049,0.052 0.102,0.103 0.16,0.162 0.375,0.38 0.763,0.754 1.108,1.156 0.389,0.455 0.709,1.066 1.009,1.592 1.317,2.318 2.01,4.848 1.691,7.516 -0.298,2.497 -1.237,5.028 -2.955,6.899 -0.929,1.011 -2.142,1.984 -3.362,2.624 -2.171,1.14 -6.704,1.67 -6.704,1.67 -4.381,0 -8.5,-2.041 -10.87,-5.525 -0.45,-0.785 -1.29,-2.531 -2.478,-4.871 -0.057,-0.117 -0.106,-0.235 -0.167,-0.354 -0.463,-0.925 -6.944,-13.593 -14.888,-25.054 -7.626,-11.646 -17.596,-21.041 -17.756,-21.041 0.153,0 9.695,9.815 16.772,21.717 3.019,4.784 5.848,9.719 8.419,14.759 0.564,1.105 1.124,2.122 1.502,3.307 0.766,2.399 0.313,5.074 -0.706,7.308 -0.975,2.139 -2.455,4.039 -4.445,5.318 -1.101,0.709 -2.409,1.27 -3.685,1.572 -1.149,0.275 -2.293,0.405 -3.411,0.405 -5.758,0 -10.856,-3.457 -12.68,-8.463 -0.229,-0.824 -0.583,-2.56 -1.108,-4.907 -0.03,-0.239 -0.069,-0.484 -0.121,-0.736 -0.246,-0.89 -2.484,-13.372 -6.432,-25.149 -3.932,-11.787 -9.789,-22.533 -9.632,-22.595 -0.162,0.046 5.179,11.117 8.499,22.975 1.503,5.323 2.683,10.741 3.672,16.181 0.21,1.156 0.493,2.35 0.519,3.522 0.048,2.257 -0.575,4.116 -2.071,5.842 -1.253,1.449 -2.929,2.524 -4.759,3.07 -0.87,0.26 -1.77,0.389 -2.677,0.389 -0.193,0 -0.386,-0.006 -0.58,-0.017 -5.998,-0.35 -10.518,-4.973 -10.812,-10.226 0.06,-2.663 1.796,-15.784 -0.444,-28.702 -1.247,-9.124 -4.93,-17.518 -7.092,-21.649 -0.222,-0.421 -0.966,-0.859 -1.323,-1.188 -0.445,-0.41 -0.872,-0.838 -1.317,-1.247 -0.669,-0.612 -1.015,-1.213 -1.264,-2.093 -0.343,-1.21 -0.476,-2.469 -0.98,-3.632 -0.73,-1.685 -2.043,-3.167 -3.541,-4.211 -1.045,-0.731 -2.219,-1.363 -3.452,-1.709 -0.86,-0.242 -1.719,-0.547 -2.46,-1.062 -0.695,-0.482 -1.02,-1.111 -1.455,-1.804 -0.539,-0.856 -1.213,-1.63 -1.799,-2.451 -1.224,-1.715 -2.418,-3.444 -3.535,-5.231 -24.638,-41.402 -22.356,-99.51 11.048,-137.403 4.453,-1.169 8.667,-3.214 12.322,-6.103 -3.326,2.11 -6.986,3.57 -10.79,4.392 -2.521,0.545 -5.1,0.814 -7.677,0.814 -8.158,0 -16.288,-2.694 -22.446,-7.852 -12.49,-9.872 -15.997,-27.951 -9.809,-41.095 2.216,-5.032 5.567,-9.232 9.551,-12.484 6.188,-5.052 13.907,-7.809 21.272,-7.809 0.599,0 1.193,0.017 1.786,0.054 12.713,0.548 22.982,8.404 27.717,17.117 -5.405,-8.302 -16.118,-12.459 -28,-12.459 l -0.158,0 c -0.087,-10e-4 -0.174,-0.002 -0.262,-0.002 -0.984,0 -1.974,0.069 -2.961,0.168 -5.644,0.573 -9.481,2.067 -14.214,5.641 -4.357,3.293 -6.75,6.411 -8.926,11.753 -5.203,11.999 -1.686,26.127 9.301,34.685 6.5,5.062 18.874,7.635 18.874,7.635 1.453,0.303 2.943,0.456 4.436,0.456 2.152,0 4.31,-0.318 6.37,-0.965 -0.963,0.219 -1.942,0.361 -2.925,0.443 -0.079,0.006 -0.159,0.014 -0.239,0.02 -0.509,0.038 -1.021,0.061 -1.539,0.061 -0.677,0 -1.345,-0.036 -2.004,-0.102 -0.076,-0.006 -0.151,-0.019 -0.227,-0.027 -10.013,-1.095 -17.822,-9.467 -18.053,-19.715 0.845,0.36 1.694,0.708 2.553,1.029 1.131,0.422 2.251,0.806 3.363,1.17 1.86,7.6 8.695,13.246 16.87,13.246 3.308,0 6.4,-0.926 9.033,-2.531 2.762,-2.159 5.598,-4.157 8.489,-6.028 6.448,-0.933 13.398,-2.613 20.023,-5.115 1.118,-0.422 2.217,-0.855 3.305,-1.293 -1.131,0.31 -2.273,0.615 -3.432,0.906 -5.676,1.429 -11.506,2.265 -17.038,2.621 -0.249,0.017 -0.501,0.037 -0.749,0.052 -0.806,0.046 -1.603,0.078 -2.393,0.103 -0.173,0.006 -0.347,0.013 -0.519,0.018 -0.846,0.022 -1.684,0.035 -2.508,0.035 -1.822,0.001 -3.601,-0.04 -5.285,-0.147 -8.302,-0.606 -17.958,-1.877 -28.166,-5.693 -5.497,-2.056 -10.764,-5.009 -15.384,-8.509 -0.568,-0.43 -1.131,-0.865 -1.678,-1.311 0.027,-2.36 0.394,-4.703 1.076,-6.987 0.604,0.436 1.207,0.853 1.808,1.251 2.759,1.823 5.473,3.247 7.937,4.318 11.023,4.762 19.184,5.341 24.403,6.032 10.577,1.081 10.596,0.859 10.591,0.916 14.188,1.152 28.348,-0.949 42.21,-3.81 11.818,-2.271 23.827,-3.383 35.852,-3.652 0.274,-0.008 0.549,-0.017 0.824,-0.023 0.405,-0.008 0.81,-0.011 1.216,-0.017 1.032,-0.017 2.063,-0.04 3.096,-0.04 0.284,0 0.568,0.008 0.853,0.01 0.152,0 0.304,-0.004 0.437,0.005 21.079,0.149 42.199,3.946 61.515,9.922 4.63,1.428 9.201,3.013 13.758,4.636 0.372,0.153 0.745,0.294 1.115,0.45 4.595,1.696 9.153,3.484 13.654,5.399 2.158,0.821 4.329,1.611 6.503,2.388 0.197,0.069 0.394,0.14 0.591,0.21 1.363,0.485 2.724,0.976 4.089,1.458 1.382,0.487 2.766,0.97 4.153,1.442 1.337,0.455 2.676,0.903 4.02,1.34 1.304,0.425 2.612,0.839 3.922,1.243 1.298,0.4 2.598,0.789 3.901,1.17 1.32,0.386 2.643,0.762 3.968,1.131 1.371,0.382 2.744,0.757 4.119,1.126 1.44,0.387 2.882,0.769 4.325,1.145 1.516,0.397 3.034,0.789 4.552,1.176 1.585,0.405 3.171,0.805 4.758,1.199 1.638,0.408 3.278,0.81 4.919,1.205 1.674,0.403 3.349,0.799 5.027,1.187 1.694,0.392 3.389,0.775 5.088,1.149 1.705,0.375 3.413,0.74 5.123,1.095 1.716,0.358 3.435,0.704 5.155,1.041 4.578,0.877 9.16,1.725 13.755,2.505 1.32,0.225 2.64,0.444 3.961,0.66 3.042,0.498 6.088,0.979 9.137,1.436 1.868,0.281 3.737,0.554 5.607,0.816 1.879,0.265 3.758,0.52 5.639,0.763 1.879,0.243 3.76,0.476 5.643,0.695 1.875,0.219 3.751,0.425 5.629,0.616 1.869,0.193 3.739,0.371 5.61,0.535 1.865,0.163 3.731,0.313 5.597,0.45 1.863,0.137 3.729,0.261 5.594,0.372 1.489,0.089 2.979,0.17 4.47,0.244 13.668,0.472 27.733,-0.478 36.964,-0.967 6.982,-0.369 22.166,-1.42 27.853,-2.517 -42.938,16.913 -124.041,5.806 -171.128,-6.707 1.916,1.294 7.761,4.919 8.309,5.239 l 19.749,4.027 c -0.934,0.097 -1.872,0.173 -2.812,0.238 -3.376,0.231 -5.457,0.054 -8.831,-0.238 9.85,5.46 19.024,9.98 29.314,14.563 10.117,2.541 20.633,3.593 31.318,3.593 26.196,0 53.445,-6.313 78.584,-12.474 5.327,-1.438 10.6,-2.982 15.846,-4.582 20.817,-9.527 37.829,-27.246 50.617,-46.086 2.881,-4.279 5.549,-8.754 8.103,-13.234 2.541,-4.455 4.881,-9.021 7.01,-13.686 2.108,-4.62 4.027,-9.327 5.75,-14.105 1.696,-4.703 3.188,-9.479 4.44,-14.321 1.238,-4.78 2.23,-9.617 3.172,-14.464 l 0.337,-1.74 c 2.092,0.608 3.096,3.102 3.834,4.948 0.34,0.852 0.144,2.38 0.122,3.289 -0.027,1.157 -0.16,2.305 -0.375,3.441 -0.459,2.433 -1.224,4.803 -1.859,7.194 -1.272,4.781 -2.524,9.492 -4.179,14.162 -1.669,4.713 -3.382,9.382 -5.421,13.95 -2.058,4.612 -4.196,9.181 -6.61,13.62 -2.432,4.471 -4.98,8.878 -7.746,13.152 -0.33,0.51 -0.657,1.022 -0.994,1.527 -7.921,11.874 -17.452,23.44 -28.738,33.036 -10.744,9.133 -23.079,16.485 -37.187,20.566 15.232,-4.018 29.845,-10.519 41.358,-20.318 19.044,-7.28 35.927,-17.048 52.803,-26.784 29.387,-17.333 56.455,-38.604 64.337,-68.395 4.904,-20.051 -3.582,-37.525 -14.366,-52.236 l -16.64,-21.992 C -17.11,-59.032 6.585,-33.598 0,0"
               style="fill:#000000;fill-opacity:1;fill-rule:nonzero;stroke:none"
               id="path3563" />
          </g>
          <g
             style="fill:#000000"
             id="g3565"
             transform="translate(354.0703,75.3828)">
            <path
               d="m 0,0 c -10.297,-3.123 -26.642,-3.481 -26.642,-3.481 2.322,-2.489 9.878,-2.668 15.033,-2.524 12.415,0.348 24.911,4.745 34.219,13.986 3.925,3.863 7.084,8.489 9.415,13.547 2.174,4.706 3.615,9.791 4.235,15.03 0.965,8.166 -0.046,16.676 -3.378,24.621 -1.918,4.545 -4.637,8.792 -7.939,12.598 -8.839,2.333 -16.799,7.607 -22.737,15.13 -4.526,1.463 -9.291,2.276 -14.167,2.276 -1.445,0 -2.899,-0.072 -4.36,-0.218 -13.236,-0.422 -25.742,-7.265 -34.46,-17.587 1.521,-1.625 3.123,-3.21 4.802,-4.748 7.325,9.42 18.218,15.985 30.146,16.674 1.712,0.226 3.422,0.336 5.122,0.336 17.04,0 32.226,-11.022 39.203,-26.045 3.295,-7.204 3.734,-14.859 3.084,-22.533 -0.439,-5.197 -1.744,-9.244 -3.834,-13.98 -2.011,-4.556 -4.49,-7.99 -7.917,-11.625 C 13.828,5.053 7.312,2.217 0,0"
               style="fill:#000000;fill-opacity:1;fill-rule:nonzero;stroke:none"
               id="path3567" />
          </g>
          <g
             style="fill:#000000"
             id="g3569"
             transform="translate(239.1738,160.8447)">
            <path
               d="m 0,0 c -2.885,-9 -6.045,-18.259 -11.854,-25.853 -6.267,-8.191 -15.466,-13.663 -25.346,-16.34 -2.82,-0.765 -5.733,-1.298 -8.636,-1.627 -1.239,-0.141 -2.506,-0.268 -3.754,-0.268 -12.334,0 -44.208,9.426 -44.208,44.088 0,17.85 15.06,37.302 21.15,43.393 4.807,4.501 10.993,7.543 17.481,8.512 -4.212,-1.137 -8.175,-3.178 -11.618,-5.897 -4.508,-3.556 -8.121,-8.255 -10.138,-13.637 -1.684,-4.14 -2.37,-8.519 -2.227,-12.835 l 0,-0.106 c 0,-0.119 0.008,-0.237 0.011,-0.356 0.023,-7.598 2.892,-15.102 7.993,-20.261 l 0.11,-0.12 0.04,-0.036 c 1.303,-1.483 2.722,-2.845 4.279,-4.003 5.564,-4.349 12.186,-6.336 18.609,-6.336 0.962,0 1.92,0.045 2.87,0.133 4.751,0.44 9.287,1.957 13.07,4.433 9.785,6.151 14.454,17.122 14.386,26.316 0.013,-1.832 -1.627,-4.5 -2.434,-6.084 -4.316,-8.476 -11.011,-16.337 -20.561,-18.783 -8.197,-2.1 -18.839,1.594 -24.844,7.384 -1.665,1.606 -3.131,3.579 -4.242,5.609 -2.04,3.728 -2.998,8.346 -2.998,12.586 0,14.313 15.375,30.192 29.878,28.276 30.618,-4.043 63.599,-16.999 79.233,-42.366 0.361,-0.908 0.749,-1.804 1.161,-2.696 11.921,-27.939 37.89,-46.474 65.395,-56.041 12.16,-4.072 24.613,-6.766 37.185,-8.437 0.018,0.04 0.036,0.077 0.054,0.117 1.642,3.72 2.863,7.155 3.419,11.391 -12.612,1.537 -25.01,4.124 -36.884,8.058 -24.973,8.406 -48.8,25.709 -58.834,49.214 -10.852,23.465 -1.745,52.091 19.806,65.598 15.613,10.342 35.128,15.064 54.032,15.064 17.83,0 30.726,-4.283 40.117,-10.6 3.348,-2.374 5.46,-4.155 5.477,-4.157 3.292,-2.884 6.115,-6.14 7.725,-10.328 0.563,-1.462 0.855,-3.252 0.568,-4.806 -0.166,-0.903 -0.168,-2.765 1.085,-2.992 0.829,-0.15 1.164,1.196 1.456,1.802 0.386,-0.823 0.254,-1.997 0.252,-2.911 -0.005,-2.553 -0.854,-4.87 -1.343,-7.338 -0.279,-1.401 0.134,-1.875 0.884,-1.875 0.787,0 1.946,0.523 3.066,1.047 1.119,0.523 2.198,1.047 2.826,1.047 0.024,0 0.047,0 0.07,-0.002 1.305,-0.087 2.627,-1.097 3.964,-1.097 0.323,0 0.646,0.058 0.97,0.203 1.698,0.756 1.259,2.512 0.809,3.923 -0.994,3.135 0.58,4.399 2.901,4.87 0.734,-0.021 1.47,-0.037 2.158,-0.055 0.091,-0.004 0.193,-0.006 0.284,-0.008 0.653,-0.02 1.416,-0.043 2.235,-0.043 3.59,0 8.284,0.448 9.741,3.63 0.359,0.783 0.407,1.385 0.241,1.853 -0.521,1.446 -2.799,1.505 -4.046,1.561 -2.052,0.098 -4.096,0.225 -6.128,0.648 -1.855,0.386 -3.111,1.051 -4.583,2.199 -0.954,0.744 -1.395,1.775 -2.667,2.046 -1.19,0.255 -2.303,-0.129 -2.32,-1.469 0.073,0.971 0.237,1.9 0.434,2.851 0.422,2.05 -0.261,3.718 -2.11,4.808 -2.028,1.198 -4.458,0.88 -6.609,1.661 -1.852,0.672 -3.415,2.005 -4.812,3.366 -7.791,7.825 -18.474,14.254 -32.869,17.37 10.535,-1.285 14.716,-3.632 14.716,-3.632 0,0 3.333,-0.333 22.916,-3.667 38.585,-6.569 75.959,-23.666 100.956,-54.608 -18.9,37.279 -61.202,54.04 -100.057,61.149 -14.845,2.61 -29.924,4 -45.005,4 -5.182,0 -10.364,-0.164 -15.536,-0.499 -10.468,-0.931 -21.367,-2.018 -31.73,-4.655 -0.175,-0.041 -0.317,-0.064 -0.499,-0.111 -0.21,-0.053 -0.436,-0.127 -0.648,-0.184 -0.885,-0.234 -1.761,-0.489 -2.636,-0.75 -0.41,-0.124 -0.809,-0.234 -1.225,-0.366 -5.317,-1.668 -10.437,-3.835 -15.227,-6.695 -4.253,-2.379 -8.437,-5.194 -12.339,-8.488 -1.093,-0.896 -2.152,-1.842 -3.179,-2.821 0,0 -0.196,-0.173 -0.175,-0.175 C 46.972,69.248 42.984,63.89 39.874,58.011 39.73,50.174 38.528,42.484 37.462,34.985 c 0.465,6.542 1.022,13.24 0.906,19.998 -0.082,4.675 -0.478,9.379 -1.491,14.091 l -0.013,0.067 C 35.783,74.563 32.516,81.536 25.861,82.518 25.49,82.566 25.133,82.56 24.77,82.582 21.017,82.503 17.297,81.1 13.787,79.704 12.435,78.995 11.119,78.24 9.834,77.514 24.326,83.037 36.207,83.172 33.655,42.061 33.201,34.744 32.217,29.447 32.217,29.447 c 3.66,-4.327 6.892,-9.029 9.502,-14.123 -2.822,3.901 -6.024,7.472 -9.52,10.718 -4.614,4.282 -9.705,8.015 -15,11.279 -4.118,2.539 -8.352,4.81 -12.581,6.808 -19.435,9.036 -40.443,13.862 -61.514,14.286 l -0.031,0 c -20.294,0 -62.724,-5.741 -76.045,-25.028 8.856,9.036 31.464,13.381 51.125,15.127 5.43,2.829 11.328,4.795 17.395,5.725 -4.499,-1.235 -8.835,-3.05 -12.88,-5.361 -10.691,-6.116 -19.365,-15.668 -23.727,-26.979 -3.617,-8.646 -4.555,-17.922 -3.341,-26.823 1.312,-9.648 5.187,-18.833 10.971,-26.286 2.841,-3.663 6.117,-6.924 9.809,-9.589 9.514,-7.236 20.841,-10.557 31.824,-10.557 2.123,0 4.232,0.124 6.313,0.368 7.597,0.887 14.818,3.367 20.9,7.243 C -7.86,-33.52 0.119,-15.278 0,0"
               style="fill:#000000;fill-opacity:1;fill-rule:nonzero;stroke:none"
               id="path3571" />
          </g>
          <g
             style="fill:#000000"
             id="g3573"
             transform="translate(81.333,228.2227)">
            <path
               d="m 0,0 c -3.369,-4.388 -8.783,-7.063 -14.354,-7.063 -5.431,0 -10.549,2.648 -13.718,7.087 l -5.128,-1.552 0.14,-0.175 c 3.976,-4.951 9.882,-7.79 16.204,-7.79 C -9.92,-9.493 -2.958,-5.841 0,0"
               style="fill:#000000;fill-opacity:1;fill-rule:nonzero;stroke:none"
               id="path3575" />
          </g>
          <g
             style="fill:#000000"
             id="g3577"
             transform="translate(617.501,142.0068)">
            <path
               d="m 0,0 c 5.416,13.917 10.19,29.962 11.762,34.564 1.571,4.603 6.166,13.631 6.166,13.631 C 16.172,32.618 11.687,18.56 9.584,11.986 9.023,10.228 8.605,8.907 8.397,8.106 L 8.345,7.9 8.306,7.689 C 7.807,4.81 7.39,1.656 7.886,-1.228 8.42,-4.351 9.763,-7.277 9.45,-10.516 8.997,-15.222 4.668,-21.576 2.135,-25.45 -1.069,-30.354 -5,-34.725 -9.01,-38.974 c -14.489,-15.361 -30.188,-28.398 -48.224,-39.431 -17.069,-10.44 -35.822,-18.741 -54.898,-24.754 -29.891,-9.423 -60.699,-15.072 -91.112,-15.072 -15.896,0 -31.689,1.544 -47.177,4.901 -22.262,5.096 -43.948,16.523 -57.867,34.712 -13.769,18.096 -20.539,40.707 -17.043,62.814 0.509,2.467 1.229,4.871 2.102,7.208 1.908,-1.874 3.861,-3.644 5.846,-5.319 -0.294,-1.071 -0.564,-2.148 -0.762,-3.241 -2.622,-19.079 4.075,-40.372 16.753,-55.975 12.791,-15.946 32.401,-25.915 53.287,-30.279 13.094,-2.599 26.605,-3.808 40.309,-3.808 30.452,0 61.85,5.973 91.688,15.946 43.142,14.674 85.022,40.643 110.557,80.072 2.048,3.161 4.16,7.628 5.551,11.2"
               style="fill:#000000;fill-opacity:1;fill-rule:nonzero;stroke:none"
               id="path3579" />
          </g>
          <g
             style="fill:#000000"
             id="g3581"
             transform="translate(392.75,418.0542)">
            <path
               d="m 0,0 c 36.5,-1.181 81.995,0.841 111.09,47.608 8.667,15.163 12.873,32.43 11.327,48.785 -1.933,39.046 -22.291,66.085 -48.76,87.071 21.66,-29.075 40.606,-50.067 41.218,-87.889 C 116.902,57.964 89.5,23.307 52.22,14.047 39.764,10.954 26.751,10.234 13.595,10.234 c -21.052,0 -42.71,0.87 -64.437,4.778 -1.396,-0.024 -2.795,-0.035 -4.195,-0.035 -17.647,0 -35.589,1.851 -53.292,5.123 14.025,-1.972 28.156,-3.029 42.131,-3.029 1.399,0 2.795,0.01 4.19,0.032 28.516,0.438 56.256,5.448 80.874,16.869 0.547,0.246 1.075,0.531 1.616,0.792 16.574,7.954 31.377,21.439 37.602,37.216 l 10e-4,-0.012 c 0.019,0.054 0.037,0.109 0.057,0.162 1.368,3.502 2.322,7.113 2.769,10.804 1.895,11.995 0.258,24.673 -3.815,36.451 -1.068,3.3 -2.347,6.37 -3.758,9.205 -0.044,0.093 -0.086,0.186 -0.13,0.279 l 0.003,-0.029 c -4.254,8.454 -9.619,14.806 -13.682,18.869 6.667,-12.642 13.688,-27.55 15.847,-44.136 l 0.613,-7.154 c 0.076,-1.933 0.083,-3.887 0.008,-5.861 C 55.57,68.383 38.93,48.438 16.522,38.809 -7.52,28.287 -34.958,23.885 -63.206,23.885 c -8.857,0 -17.792,0.432 -26.73,1.245 -6.196,0.79 -19.489,2.795 -25.954,4.423 l 0,-0.001 c -4.552,1.14 -9.129,2.277 -13.735,3.38 -6.532,-1.081 -13.217,-1.617 -19.935,-1.617 -1.047,0 -2.094,0.014 -3.143,0.039 6.388,0.38 12.725,1.223 18.903,2.563 16.035,3.476 31.625,9.886 43.55,19.774 l 0.119,0.103 c 10.316,8.627 17.981,20.392 19.443,32.346 2.271,18.563 -4.817,28.058 -8.076,31.317 8.684,-17.107 4.014,-45.567 -15.488,-59.298 -15.779,-11.958 -36.943,-18.574 -58.547,-19.724 -0.87,0.032 -1.741,0.06 -2.612,0.108 -0.607,0.116 -1.218,0.219 -1.827,0.333 5.614,2.107 10.321,6.611 12.322,12.156 3.42,8.698 -0.147,18.908 -7.165,23.747 -3.552,2.583 -7.72,3.766 -11.767,3.766 -3.92,0.001 -7.725,-1.109 -10.752,-3.134 -6.285,-4.035 -9.175,-11.055 -9,-16.872 1.775,5.836 7.246,13.337 15.323,15.118 0.308,0.068 0.621,0.126 0.937,0.175 8.362,1.292 16.187,-4.447 17.476,-12.811 1.132,-7.349 -3.081,-14.504 -9.888,-16.729 -6.679,-2.182 -10.576,-2.928 -19.796,-2.025 -9.071,1.045 -18.269,1.657 -27.614,1.657 -0.88,0 -1.759,-0.005 -2.642,-0.016 -0.937,0.012 -1.879,0.019 -2.823,0.019 -2.064,0 -4.149,-0.04 -6.243,-0.099 -2.12,-1.356 -4.539,-2.322 -6.591,-3.14 l -0.519,-0.207 c -3.335,-1.335 -6.716,-2.452 -9.873,-3.461 -0.935,-0.299 -1.872,-0.595 -2.809,-0.891 -4.63,-1.461 -9.417,-2.972 -13.9,-4.883 -4.988,-2.127 -10.214,-4.691 -15.976,-7.84 l -1.036,-0.563 c -1.274,-0.704 -2.592,-1.448 -3.938,-2.216 20.195,7.545 42.501,10.744 63.615,10.744 l 0.13,0 c 1.981,0.057 3.956,0.085 5.927,0.085 43.961,0 85.624,-13.877 127.857,-21.966 C -50.642,4.894 -25.13,0.739 0,0"
               style="fill:#000000;fill-opacity:1;fill-rule:nonzero;stroke:none"
               id="path3583" />
          </g>
        </g>
      </g>
    </g>
  </g>
</svg>
