<?xml version="1.0" standalone="no"?>
<!DOCTYPE svg PUBLIC "-//W3C//DTD SVG 20010904//EN"
 "http://www.w3.org/TR/2001/REC-SVG-20010904/DTD/svg10.dtd">
<svg version="1.0" xmlns="http://www.w3.org/2000/svg"
 width="700.000000pt" height="700.000000pt" viewBox="0 0 700.000000 700.000000"
 preserveAspectRatio="xMidYMid meet">
<metadata>
Created by potrace 1.11, written by Peter Selinger 2001-2013
</metadata>
<g transform="translate(0.000000,700.000000) scale(0.100000,-0.100000)"
fill="#000000" stroke="none">
<path d="M4500 6356 c0 -4 33 -50 74 -104 242 -321 309 -484 310 -762 1 -101
-4 -152 -17 -200 -83 -301 -328 -530 -637 -595 -104 -22 -168 -26 -380 -26
-235 0 -320 5 -505 32 -38 5 -125 11 -193 14 -137 5 -275 15 -281 20 -2 2 75
3 170 2 160 -2 328 6 389 18 14 3 44 7 66 10 23 3 93 18 156 34 337 87 557
234 657 439 71 145 72 330 1 524 -30 81 -101 199 -142 233 -12 11 -18 13 -12
5 14 -19 80 -169 101 -230 32 -92 51 -213 48 -305 -8 -237 -165 -429 -440
-538 -88 -35 -254 -82 -325 -92 -19 -2 -73 -10 -120 -16 -103 -14 -454 -19
-536 -8 -32 5 -79 11 -104 15 -25 3 -97 17 -160 31 -136 30 -167 33 -220 23
-22 -4 -43 -3 -46 1 -3 5 5 9 19 9 44 0 192 42 282 81 166 72 296 183 359 309
63 124 60 320 -6 400 -16 21 -19 22 -13 5 40 -120 26 -264 -37 -389 -93 -185
-382 -330 -695 -350 -29 -2 -53 -2 -53 -1 0 1 18 15 40 30 114 79 112 254 -4
332 -68 45 -186 34 -242 -22 -25 -25 -54 -81 -54 -105 0 -25 0 -24 16 5 34 67
100 109 166 108 136 -3 195 -185 86 -266 -54 -40 -114 -50 -240 -42 -262 16
-378 16 -410 -1 -29 -15 -124 -51 -158 -59 -66 -17 -340 -138 -340 -150 0 -2
25 5 55 15 59 20 213 55 285 64 25 3 65 8 90 12 63 8 362 8 440 0 139 -15 158
-18 285 -41 17 -3 46 -8 65 -11 19 -3 125 -26 235 -51 316 -70 478 -105 555
-118 14 -2 41 -7 60 -10 45 -9 65 -12 120 -19 25 -3 56 -8 70 -11 14 -3 48 -8
75 -11 28 -3 64 -7 80 -9 138 -19 484 -26 605 -12 275 32 475 126 635 299 101
109 154 197 198 328 30 91 40 151 40 250 1 263 -87 509 -251 703 -58 69 -212
216 -212 203z m-1652 -1613 c-10 -2 -26 -2 -35 0 -10 3 -2 5 17 5 19 0 27 -2
18 -5z"/>
<path d="M3955 5705 c23 -74 34 -231 21 -295 -3 -14 -8 -38 -12 -55 -9 -42
-65 -132 -115 -184 -49 -51 -151 -119 -235 -156 -120 -55 -233 -85 -458 -125
-166 -29 -179 -42 -36 -37 63 3 129 8 145 11 207 46 282 70 395 126 242 122
362 280 362 480 0 76 -24 170 -57 227 -9 15 -13 19 -10 8z"/>
<path d="M3614 5534 c3 -125 -34 -228 -110 -313 -96 -107 -307 -215 -599 -307
l-120 -38 52 -8 c45 -7 69 -3 165 26 429 130 652 324 643 556 -5 116 -33 192
-31 84z"/>
<path d="M3259 5504 c-1 -56 -8 -91 -30 -157 -58 -172 -208 -296 -477 -393
-130 -47 -134 -50 -84 -59 72 -12 216 41 350 130 185 121 272 273 257 448 -6
71 -15 87 -16 31z"/>
<path d="M5262 5483 c-45 -152 -56 -226 -53 -368 2 -135 9 -185 39 -280 13
-41 58 -125 67 -125 5 0 -6 75 -15 100 -14 42 -29 112 -40 178 -9 59 -6 316 4
372 8 43 17 160 13 160 -2 0 -9 -17 -15 -37z"/>
<path d="M1316 5365 c-22 -8 -44 -22 -50 -31 -12 -19 -31 -54 -85 -149 -50
-89 -125 -205 -133 -205 -4 0 10 28 31 63 99 162 110 210 63 266 -47 57 -141
53 -195 -7 -10 -11 -29 -67 -42 -124 -27 -114 -57 -220 -74 -258 l-12 -25 6
25 c3 14 17 76 32 139 25 112 26 115 8 148 -21 38 -63 54 -109 42 -66 -19 -86
-65 -78 -177 9 -144 -37 -365 -89 -421 -9 -10 -26 -38 -37 -64 -16 -36 -29
-50 -59 -62 -55 -23 -120 -121 -183 -279 -135 -342 -101 -747 90 -1052 61 -97
90 -131 132 -150 l33 -15 -30 7 c-16 4 -59 8 -95 10 -109 4 -218 -51 -284
-143 -92 -129 -81 -311 25 -424 72 -77 149 -111 251 -111 55 0 80 6 131 31 34
17 78 47 97 67 l35 37 -35 -25 c-74 -54 -221 -79 -309 -52 -66 19 -142 88
-171 156 -32 75 -32 156 2 228 42 89 92 132 194 168 66 24 107 29 59 8 -46
-20 -94 -76 -109 -126 -7 -25 -13 -46 -12 -47 0 -1 13 1 28 4 18 3 32 16 43
38 20 44 81 93 123 101 44 8 106 -11 157 -47 26 -19 77 -39 136 -54 51 -13 78
-22 59 -20 -158 21 -303 14 -434 -20 -70 -18 -112 -37 -188 -82 -52 -32 -56
-37 -51 -66 3 -18 6 -33 7 -35 2 -1 23 9 48 23 120 67 272 95 493 90 83 -1
166 -6 185 -9 19 -4 58 -11 85 -16 58 -11 163 -26 255 -36 122 -13 363 -7 475
11 201 34 370 82 575 162 323 127 806 246 1124 279 28 3 57 7 64 9 77 26 585
26 862 0 l55 -5 -40 14 c-37 13 -179 43 -250 53 -57 8 -460 10 -535 3 -41 -4
-113 -11 -160 -14 -47 -4 -92 -9 -100 -11 -17 -4 -76 -13 -135 -21 -48 -6
-366 -70 -415 -84 -33 -9 -34 -8 -15 6 32 26 75 41 153 54 75 14 89 26 24 22
l-37 -2 33 20 c67 41 258 128 297 135 159 27 394 28 561 1 240 -38 589 -123
666 -162 229 -116 452 -367 602 -678 50 -103 116 -299 137 -404 11 -60 13 -62
30 -46 26 24 24 80 -6 192 -85 309 -238 578 -449 788 -98 97 -143 133 -244
191 -42 25 -66 42 -52 38 39 -12 130 -60 185 -99 28 -20 75 -47 105 -62 200
-95 294 -143 435 -224 372 -214 578 -411 668 -639 25 -62 31 -94 33 -171 3
-83 0 -105 -25 -178 -39 -111 -95 -199 -274 -432 -21 -27 89 68 129 112 229
248 280 508 152 763 -92 182 -249 345 -489 507 -138 94 -295 176 -349 181 -42
5 -130 25 -130 30 0 1 69 2 152 2 170 0 217 5 363 38 95 21 100 24 97 47 -1
13 -4 25 -5 26 -9 10 -154 -29 -172 -46 -31 -29 -87 -36 -133 -17 -24 10 -80
18 -162 21 -177 7 -196 11 -380 80 -191 72 -247 89 -260 81 -6 -3 -10 -2 -10
3 0 8 -77 36 -145 52 -139 34 -296 70 -325 75 -19 3 -42 8 -50 10 -8 2 -35 7
-60 10 -25 3 -56 8 -70 10 -100 16 -379 23 -402 9 -9 -5 -10 -4 -3 4 6 6 42
14 80 18 39 4 77 8 85 10 8 1 17 3 19 3 3 1 -7 13 -22 29 -14 15 -33 44 -42
64 l-15 38 -98 -35 c-160 -58 -340 -141 -527 -245 -27 -15 -91 -50 -141 -78
-253 -140 -422 -221 -559 -269 -396 -137 -763 -163 -1064 -76 -264 76 -474
240 -584 458 -25 51 -108 266 -122 320 -28 103 -26 130 3 45 59 -173 132 -291
266 -426 130 -131 276 -221 464 -288 222 -79 540 -96 807 -42 17 3 41 8 55 11
14 2 72 18 130 34 109 31 249 86 195 76 -16 -3 -114 -21 -216 -40 -365 -69
-535 -77 -738 -36 -385 80 -673 289 -825 599 -196 400 -83 779 314 1053 205
142 380 232 588 303 73 24 148 54 166 65 39 24 65 72 59 106 -7 32 -44 65 -82
71 -31 5 -35 2 -151 -104 -14 -13 -52 -42 -85 -63 -33 -22 -49 -31 -35 -19
178 151 201 176 207 234 11 91 -78 153 -171 121z m-286 -414 c-5 -11 -15 -23
-21 -27 -6 -3 -3 5 6 20 20 30 30 35 15 7z m-219 -84 c-10 -9 -11 -8 -5 6 3
10 9 15 12 12 3 -3 0 -11 -7 -18z"/>
<path d="M5738 5253 c-29 -35 -89 -142 -118 -214 -56 -134 -84 -278 -68 -338
l10 -35 13 30 c7 17 16 58 19 90 7 63 90 318 136 422 16 34 27 62 26 62 -2 0
-10 -8 -18 -17z"/>
<path d="M5415 5180 c-29 -12 -62 -46 -82 -83 -26 -49 -23 -201 6 -297 28 -92
50 -136 109 -220 86 -121 106 -134 82 -50 -31 104 -31 291 0 395 51 173 45
217 -37 251 -36 16 -49 16 -78 4z m67 -97 c2 -10 -4 -55 -14 -101 -37 -170
-28 -245 57 -477 15 -41 -49 73 -76 136 -82 190 -78 459 7 459 13 0 24 -7 26
-17z"/>
<path d="M5866 5175 c-56 -20 -108 -76 -150 -161 -89 -182 -105 -355 -55 -602
6 -29 15 -50 20 -46 6 3 7 -6 4 -23 -5 -20 -4 -24 4 -13 5 8 12 34 16 57 9 61
58 210 90 274 39 77 73 124 154 213 83 91 106 134 104 192 -3 96 -87 145 -187
109z m82 -97 c22 -28 0 -73 -84 -173 -81 -97 -144 -247 -160 -381 -3 -32 -10
-79 -14 -104 l-8 -45 -2 45 c-10 205 15 352 86 494 44 88 77 132 118 157 36
22 50 24 64 7z"/>
<path d="M503 5098 c-12 -6 -26 -23 -31 -38 -9 -23 -3 -41 34 -116 44 -89 63
-156 66 -229 l2 -40 18 43 c46 103 41 314 -7 366 -26 28 -46 31 -82 14z"/>
<path d="M5055 5092 c-83 -18 -104 -106 -50 -212 35 -69 136 -169 215 -213 61
-34 120 -60 120 -54 0 2 -18 28 -41 58 -58 77 -105 181 -123 274 -9 43 -23 89
-31 102 -19 28 -64 51 -90 45z m39 -104 c7 -18 22 -59 32 -92 20 -65 73 -146
142 -220 l47 -49 -45 34 c-76 57 -147 136 -183 201 -35 63 -53 130 -42 148 12
20 36 9 49 -22z"/>
<path d="M6105 4948 c-62 -49 -177 -167 -221 -228 -44 -59 -63 -116 -37 -106
8 3 16 6 18 6 2 0 32 39 68 88 35 48 99 127 141 176 94 109 97 116 31 64z"/>
<path d="M389 4934 c-28 -34 -20 -52 42 -100 34 -26 75 -68 91 -93 l29 -46 -6
45 c-12 87 -85 210 -125 210 -10 0 -24 -7 -31 -16z"/>
<path d="M6265 4906 c-139 -44 -280 -178 -389 -370 -66 -115 -132 -318 -142
-436 -3 -39 -2 -42 9 -26 6 10 37 51 67 90 143 186 270 287 506 401 137 66
176 98 193 160 13 49 4 95 -28 135 -45 56 -128 74 -216 46z m119 -112 c35 -34
10 -72 -74 -114 -115 -58 -278 -176 -345 -251 -59 -65 -117 -149 -172 -246
-56 -101 -60 -97 -16 17 66 167 157 312 271 427 84 86 140 128 217 161 60 26
98 28 119 6z"/>
<path d="M1529 4836 c-2 -2 -35 -6 -74 -10 -82 -7 -119 -13 -160 -25 -21 -7
10 -10 110 -11 215 -2 430 -12 535 -25 288 -35 746 -136 847 -186 27 -13 53
-34 59 -47 8 -15 11 -169 10 -493 l-1 -471 -23 -19 c-13 -10 -46 -21 -73 -25
-48 -7 -50 -8 -47 -37 l3 -30 165 0 c162 1 166 1 230 31 l65 30 -43 13 c-82
24 -82 23 -82 343 l0 281 37 39 c91 96 266 121 346 48 10 -9 27 -35 38 -59 17
-38 19 -67 19 -313 0 -283 3 -308 46 -356 51 -57 39 -56 648 -60 308 -2 582
-5 608 -8 88 -8 163 -17 183 -22 11 -3 -14 11 -55 31 -85 41 -91 42 -256 50
-312 15 -384 27 -406 68 -9 16 -12 105 -13 302 l-1 280 39 42 c40 43 100 78
153 89 l31 6 -4 -49 c-4 -43 -1 -51 25 -76 23 -22 39 -28 79 -29 31 -2 57 3
68 12 55 45 60 148 9 201 -15 16 -42 33 -59 38 -76 20 -200 -22 -287 -99 -25
-22 -48 -40 -51 -40 -2 0 -3 27 -2 61 1 47 -2 62 -16 69 -9 5 -18 8 -20 6 -2
-2 -63 -7 -136 -11 -72 -4 -140 -8 -150 -10 -10 -2 -21 -4 -25 -4 -5 -1 -8
-14 -8 -30 0 -26 4 -29 46 -36 29 -4 57 -17 77 -35 l32 -28 3 -309 c2 -169 1
-322 -3 -339 -7 -38 -35 -54 -112 -63 -114 -13 -224 16 -239 61 -4 13 -8 151
-9 308 -2 244 -4 292 -20 335 -39 111 -119 165 -250 170 -121 5 -225 -33 -321
-118 l-44 -39 0 189 0 189 -62 13 c-35 7 -76 15 -93 17 -16 3 -125 28 -242 54
-470 109 -618 131 -899 136 -121 2 -223 2 -225 0z"/>
<path d="M470 4670 c28 -26 30 -32 19 -52 -24 -45 -49 -49 -84 -13 -31 30 -34
9 -4 -29 14 -18 30 -26 53 -26 92 0 104 127 13 144 l-28 5 31 -29z"/>
<path d="M6213 4459 c-136 -72 -287 -191 -295 -233 -5 -24 -4 -25 22 -11 15 8
64 46 110 86 46 40 120 99 164 132 116 85 116 87 -1 26z"/>
<path d="M1170 4380 c-87 -23 -107 -32 -161 -72 -122 -88 -187 -216 -193 -381
-9 -229 123 -410 346 -478 85 -25 251 -20 333 11 192 73 301 228 309 438 10
240 -109 413 -328 479 -76 23 -227 25 -306 3z m255 -76 c105 -50 169 -202 167
-399 -2 -271 -128 -426 -324 -400 -91 13 -170 91 -213 210 -23 66 -30 286 -12
365 28 116 101 208 186 234 56 17 149 13 196 -10z"/>
<path d="M2228 4385 c-158 -43 -277 -153 -333 -307 -43 -119 -28 -308 33 -422
76 -140 205 -213 386 -220 157 -6 303 64 406 194 l30 38 -32 20 -32 21 -58
-63 c-74 -82 -134 -110 -235 -109 -99 1 -168 34 -224 108 -58 77 -81 150 -84
268 -6 211 73 374 196 405 52 13 127 9 165 -9 31 -16 33 -28 19 -104 -21 -110
3 -148 100 -162 76 -10 124 40 121 127 -4 91 -62 162 -166 201 -68 26 -222 34
-292 14z"/>
<path d="M5020 4383 c-14 -2 -57 -20 -95 -38 -196 -94 -292 -313 -238 -547 53
-232 232 -363 483 -354 73 2 98 8 151 33 35 17 73 38 84 46 19 15 19 16 -10
22 -17 4 -41 10 -54 14 -14 4 -47 1 -75 -7 -62 -16 -176 -10 -232 13 -102 42
-155 148 -166 330 l-2 50 343 3 343 2 -5 48 c-21 179 -143 324 -315 375 -48
14 -164 19 -212 10z m190 -141 c71 -34 121 -100 135 -179 l5 -33 -235 0 -235
0 0 28 c0 15 9 46 20 70 53 117 194 169 310 114z"/>
<path d="M6213 4350 c-72 -25 -195 -120 -264 -203 -32 -38 -78 -110 -103 -160
-44 -90 -91 -216 -83 -223 2 -2 43 34 90 81 137 133 210 178 402 244 142 50
185 84 185 148 -1 111 -99 160 -227 113z m125 -79 c8 -4 12 -19 10 -32 -2 -20
-22 -32 -118 -74 -186 -81 -279 -153 -394 -304 -31 -40 -56 -70 -56 -66 0 26
128 222 189 288 111 121 313 224 369 188z"/>
<path d="M4597 3814 c-1 -1 -49 -5 -106 -8 -57 -4 -107 -8 -110 -11 -4 -2 -28
-5 -54 -6 -50 -3 -49 -1 -49 -74 0 -69 -1 -67 45 -60 80 11 132 14 250 15 107
1 118 3 112 18 -4 9 -14 42 -23 73 -14 50 -19 56 -40 55 -13 0 -24 -2 -25 -2z"/>
<path d="M4917 3813 c-10 -17 18 -115 41 -142 16 -19 43 -25 162 -36 82 -7
267 -50 380 -88 97 -32 248 -110 321 -166 35 -27 118 -104 184 -171 116 -118
188 -183 250 -226 180 -124 468 -194 618 -150 135 39 169 147 64 203 -25 13
-62 17 -177 19 -80 1 -167 7 -195 14 -71 16 -207 58 -225 70 -22 14 -9 12 55
-10 52 -18 198 -50 250 -54 40 -4 82 28 65 50 -7 7 5 18 38 33 108 51 117 147
19 197 -30 16 -92 16 -202 0 -26 -4 -87 -9 -268 -20 -21 -1 -40 1 -43 6 -3 4
19 8 48 9 78 1 149 9 186 20 68 22 82 67 30 99 -37 22 -67 21 -189 -10 -119
-29 -120 -29 -113 -19 3 5 11 9 19 9 34 0 150 44 171 65 30 30 30 39 2 65 -31
29 -74 25 -162 -15 -76 -36 -230 -85 -264 -85 -10 0 -56 25 -102 56 -47 31
-110 68 -140 84 -149 74 -392 147 -555 166 -27 3 -53 8 -56 9 -3 2 -48 7 -100
11 -52 3 -97 8 -101 10 -4 2 -9 1 -11 -3z m1306 -470 c-7 -2 -21 -2 -30 0 -10
3 -4 5 12 5 17 0 24 -2 18 -5z m47 -169 c0 -2 -9 0 -20 6 -11 6 -20 13 -20 16
0 2 9 0 20 -6 11 -6 20 -13 20 -16z"/>
<path d="M3900 3714 c-52 -13 -105 -25 -118 -28 -60 -13 -63 -16 -60 -59 2
-35 8 -44 32 -56 61 -29 220 -26 250 5 18 18 20 165 2 163 -6 0 -54 -12 -106
-25z"/>
<path d="M5320 3440 c-19 -10 -59 -22 -88 -26 -44 -5 -52 -9 -46 -23 11 -25
13 -135 4 -177 -6 -26 -5 -47 5 -70 33 -79 140 -71 161 12 10 37 -11 139 -39
196 l-23 47 28 -17 c102 -60 222 -208 271 -332 32 -83 37 -108 43 -260 l6
-125 47 -48 46 -48 7 38 c15 90 -1 299 -33 416 -38 142 -171 324 -301 412 -43
29 -42 29 -88 5z"/>
<path d="M5682 3416 c44 -45 66 -85 62 -113 -1 -7 -2 -19 -3 -27 0 -8 -17 -30
-37 -50 -31 -31 -34 -38 -24 -57 12 -21 12 -21 42 7 45 43 61 81 55 129 -5 52
-45 105 -101 136 l-41 22 47 -47z"/>
<path d="M145 3192 l-40 -18 67 4 c46 3 84 -1 122 -13 55 -17 93 -15 81 6 -22
35 -170 49 -230 21z"/>
<path d="M3755 3131 c-23 -21 -120 -35 -255 -36 -80 -1 -170 -6 -200 -10 -55
-8 -55 -8 -20 -16 178 -41 373 -24 492 42 50 27 51 29 23 29 -17 0 -35 -4 -40
-9z"/>
<path d="M249 3126 c-3 -3 -14 -7 -25 -9 -37 -6 -96 -40 -142 -84 l-47 -43 50
28 c76 43 140 60 224 60 136 0 129 -1 105 22 -14 15 -38 22 -89 26 -39 3 -73
3 -76 0z"/>
<path d="M6099 3036 c16 -41 13 -86 -10 -161 -22 -71 -19 -81 21 -87 26 -3 27
-7 14 -75 -5 -29 -4 -33 15 -33 11 0 21 5 21 10 0 6 6 10 14 10 26 0 39 -102
33 -260 -3 -80 -8 -158 -11 -175 -20 -100 -41 -190 -63 -265 -36 -121 -34
-176 11 -235 51 -66 145 -99 215 -74 143 52 161 254 59 668 -16 68 -41 156
-54 194 -13 39 -22 72 -20 74 2 3 7 -6 11 -19 4 -13 13 -36 21 -53 41 -90 115
-335 129 -431 9 -58 22 -118 29 -133 54 -104 203 -144 289 -78 145 111 63 322
-244 626 l-114 112 113 -80 c142 -101 186 -115 260 -86 94 38 103 173 15 218
-15 8 -109 41 -208 72 -99 32 -215 72 -257 90 -72 31 -187 100 -233 142 -12
10 -31 27 -43 38 l-23 19 10 -28z"/>
<path d="M3408 2995 c-2 -2 -34 -6 -73 -10 -38 -3 -79 -8 -90 -10 -11 -3 -38
-7 -60 -10 -200 -28 -408 -153 -514 -308 -35 -51 -39 -63 -40 -114 -1 -18 -4
-33 -8 -33 -5 0 -8 30 -7 68 2 157 -53 262 -136 262 -23 0 -120 -30 -120 -37
0 -2 8 -2 18 1 161 50 217 -71 188 -414 -6 -72 -5 -79 17 -106 51 -61 45 -71
-10 -17 -67 65 -177 140 -278 188 -70 34 -256 99 -308 109 -15 3 -53 10 -85
15 -338 62 -770 -22 -937 -181 l-30 -29 50 27 c78 41 111 52 287 89 9 2 47 7
83 10 37 4 94 18 127 32 33 13 62 23 64 21 1 -2 -23 -17 -54 -33 -82 -42 -195
-157 -232 -238 -61 -130 -69 -255 -25 -394 69 -218 251 -353 484 -359 149 -3
264 42 366 144 85 84 135 183 149 297 6 50 6 49 -28 -33 -79 -193 -188 -291
-370 -328 -143 -30 -290 16 -404 126 -75 73 -123 203 -116 315 11 161 156 395
285 461 27 13 49 22 49 19 0 -2 -13 -11 -29 -20 -67 -34 -124 -106 -148 -187
-19 -64 -13 -180 12 -228 27 -53 96 -120 150 -147 51 -27 147 -36 206 -21 104
26 199 130 215 235 5 37 5 37 -9 13 -74 -136 -180 -216 -267 -204 -64 10 -77
13 -113 28 -166 71 -191 300 -47 430 68 61 120 80 207 73 134 -11 316 -67 451
-137 177 -93 275 -187 347 -335 108 -218 331 -410 587 -505 60 -22 216 -65
268 -74 46 -8 79 -14 112 -21 31 -7 44 10 54 71 l6 39 -106 18 c-356 60 -621
212 -777 445 -157 235 -125 521 78 701 202 179 606 247 873 148 139 -51 250
-155 250 -235 0 -20 6 -35 15 -38 12 -5 14 -17 9 -56 -7 -50 -7 -50 17 -42 13
5 41 8 62 7 37 -3 37 -2 37 36 0 43 7 47 88 50 51 2 82 19 82 43 0 17 -23 25
-92 32 -14 2 -38 13 -53 24 -15 12 -31 19 -36 16 -5 -3 -9 6 -9 19 0 30 -17
45 -57 53 -17 3 -53 24 -79 47 -69 57 -159 114 -202 128 -20 6 -41 16 -47 21
-5 5 10 2 33 -6 24 -9 113 -27 197 -41 267 -44 427 -94 610 -189 154 -80 235
-138 353 -250 97 -93 105 -92 33 5 -128 170 -321 306 -555 390 -118 43 -314
93 -406 104 -18 2 -104 14 -145 21 -33 5 -412 13 -417 9z"/>
<path d="M3349 2866 c-2 -2 -26 -7 -54 -10 -88 -12 -178 -38 -262 -77 -79 -36
-181 -106 -213 -146 -45 -55 -106 -170 -97 -180 2 -2 17 16 32 39 89 134 221
223 426 286 65 20 87 25 184 38 77 10 101 12 220 14 l110 2 -50 14 c-46 13
-286 30 -296 20z"/>
<path d="M3651 2704 c-287 -60 -409 -365 -242 -608 115 -167 346 -221 517
-121 78 46 164 150 164 198 0 8 -8 24 -17 36 -18 22 -18 22 -42 -29 -31 -65
-106 -133 -178 -160 -227 -85 -463 79 -463 323 0 91 26 154 92 220 64 64 129
98 247 127 42 10 67 19 56 20 -11 1 -31 3 -45 4 -14 2 -54 -3 -89 -10z"/>
<path d="M373 2683 c-21 -8 -15 -19 28 -48 69 -45 192 -44 231 2 12 15 11 15
-9 5 -59 -32 -163 -16 -202 31 -14 17 -26 20 -48 10z"/>
<path d="M6134 2608 c-24 -74 -42 -100 -158 -232 -28 -31 -33 -65 -15 -97 14
-27 53 -41 83 -29 53 20 114 176 123 311 6 103 -7 123 -33 47z"/>
<path d="M61 2550 c-24 -40 -49 -116 -57 -175 -5 -38 -4 -38 16 15 11 30 33
76 50 103 22 36 27 53 21 70 -8 21 -9 21 -30 -13z"/>
<path d="M4140 2511 c0 -40 -25 -63 -61 -57 -26 4 -29 2 -29 -25 0 -23 5 -30
28 -35 15 -3 35 -8 44 -11 10 -2 47 -6 83 -8 36 -2 73 -6 83 -9 9 -3 31 1 47
9 l30 13 -33 1 c-18 1 -43 6 -55 12 -26 13 -77 66 -70 72 2 3 -7 14 -21 25
-15 11 -26 25 -26 31 0 6 -4 11 -10 11 -5 0 -10 -13 -10 -29z"/>
<path d="M5605 2464 c-9 -33 -26 -85 -38 -117 l-22 -59 -92 -45 c-111 -54
-147 -89 -141 -132 4 -26 -3 -39 -42 -81 -43 -46 -53 -52 -121 -66 -117 -25
-196 -23 -247 6 -56 32 -132 153 -132 211 0 11 -4 19 -9 19 -15 0 16 -135 44
-189 78 -154 192 -210 420 -206 142 2 173 16 226 98 22 33 39 65 39 72 0 6 21
42 46 80 60 90 125 221 154 309 l22 68 -45 45 -45 46 -17 -59z"/>
<path d="M1211 2420 c-164 -90 -281 -236 -323 -401 -18 -70 -24 -214 -9 -205
6 4 11 19 11 33 0 48 31 148 72 232 51 104 168 227 273 289 39 23 76 51 83 62
11 19 10 20 -20 20 -18 0 -57 -14 -87 -30z"/>
<path d="M4084 2362 c-5 -4 -15 -24 -21 -44 -10 -34 -9 -40 12 -62 41 -45 136
-99 182 -104 l44 -5 -30 32 c-16 17 -33 31 -39 31 -25 0 -42 48 -42 117 0 19
-5 22 -35 21 -19 -1 -40 4 -47 10 -8 6 -18 8 -24 4z"/>
<path d="M6120 2253 c-12 -27 -46 -122 -77 -213 -30 -91 -70 -196 -88 -235
-48 -104 -173 -267 -284 -369 -18 -17 -45 -42 -60 -56 -87 -83 -282 -213 -441
-294 -243 -124 -628 -245 -865 -272 -33 -3 -69 -8 -80 -10 -70 -14 -141 -18
-300 -17 -242 0 -400 23 -558 80 -334 120 -542 409 -534 741 2 96 1 104 -21
125 -28 26 -38 16 -48 -53 -52 -340 142 -696 469 -862 65 -32 243 -94 297
-102 19 -3 58 -10 85 -15 161 -30 472 -34 660 -7 17 3 53 7 80 11 60 7 69 9
170 30 560 117 961 322 1312 674 103 103 222 263 225 304 2 28 0 49 -8 118 -5
46 0 77 29 180 19 68 38 138 41 154 19 89 25 135 20 135 -2 0 -13 -21 -24 -47z"/>
<path d="M3248 2084 c-2 -1 -32 -5 -68 -8 -45 -4 -87 -17 -136 -41 -70 -34
-164 -107 -164 -127 0 -6 9 -19 20 -28 20 -17 22 -16 70 30 147 142 381 154
546 30 107 -80 164 -190 168 -320 7 -204 -103 -368 -289 -429 -68 -22 -98 -27
-204 -37 -89 -8 -74 -24 27 -28 192 -8 376 89 455 238 84 161 81 331 -9 483
-29 49 -45 65 -72 74 -52 17 -101 48 -150 94 -24 22 -49 43 -55 47 -13 6 -135
26 -139 22z"/>
<path d="M4359 1854 c-6 -114 16 -168 97 -243 63 -58 80 -98 57 -131 -21 -30
-11 -35 39 -17 24 9 61 18 83 21 22 3 60 14 85 25 51 22 84 29 152 30 41 1 55
7 105 49 32 26 95 70 139 96 45 27 94 58 108 70 l27 21 -78 2 c-43 2 -103 8
-133 14 -107 21 -192 -1 -198 -52 -3 -23 -9 -28 -44 -33 -25 -4 -38 -11 -35
-19 3 -9 -18 -12 -84 -11 -78 1 -96 5 -161 36 -78 37 -137 87 -139 119 -2 32
-4 37 -11 45 -5 4 -9 -6 -9 -22z"/>
<path d="M5253 1735 c-21 -15 -28 -33 -39 -110 -10 -72 -70 -232 -114 -304
-57 -95 -142 -178 -296 -291 -161 -117 -160 -116 -94 -90 258 101 448 309 525
575 21 72 47 224 41 232 -1 2 -12 -4 -23 -12z"/>
<path d="M4411 1551 c-66 -70 -123 -243 -116 -348 4 -61 28 -132 57 -174 l18
-24 -8 30 c-12 52 -4 138 18 190 23 54 48 87 60 80 4 -2 27 5 51 17 24 12 56
21 70 19 20 -2 47 15 112 71 85 72 97 95 35 63 -18 -9 -55 -19 -83 -22 -27 -3
-62 -12 -77 -19 -15 -8 -36 -14 -47 -14 -27 0 -36 35 -17 64 19 29 11 60 -21
81 -23 15 -25 15 -52 -14z"/>
<path d="M4237 1560 c-57 -17 -164 -114 -214 -194 -30 -46 -51 -112 -45 -138
6 -28 19 -21 26 12 3 20 14 34 29 39 14 5 34 22 46 36 17 23 22 25 27 11 5
-14 11 -13 48 9 48 28 66 31 66 11 0 -15 27 -25 47 -19 7 3 18 23 24 46 6 23
25 70 42 105 33 68 29 81 -20 82 -12 0 -27 2 -35 4 -7 2 -26 0 -41 -4z"/>
<path d="M5962 1507 c-130 -157 -337 -338 -510 -446 -96 -60 -333 -181 -354
-181 -8 0 -18 -4 -23 -8 -20 -18 -350 -126 -424 -138 -14 -3 -42 -9 -61 -14
-19 -5 -55 -12 -80 -15 -25 -3 -52 -8 -60 -10 -43 -12 -168 -28 -319 -40 -62
-5 -79 -14 -30 -17 19 0 48 -3 64 -4 101 -12 379 -5 465 10 14 3 41 7 60 10
176 26 450 125 631 227 265 150 432 294 568 486 58 83 127 193 119 193 -2 0
-22 -24 -46 -53z"/>
<path d="M3763 1517 c-15 -19 -33 -101 -23 -107 4 -3 69 -7 142 -8 l135 -4 16
26 c10 14 33 41 52 60 l35 35 -165 0 c-92 0 -170 3 -174 6 -5 2 -13 -1 -18 -8z"/>
</g>
</svg>
